<svg xmlns="http://www.w3.org/2000/svg" xmlns:xlink="http://www.w3.org/1999/xlink" width="100" zoomAndPan="magnify" viewBox="0 0 75 74.999997" height="100" preserveAspectRatio="xMidYMid meet" version="1.0"><defs><clipPath id="52d4989c57"><path d="M 5 19 L 70 19 L 70 68.984375 L 5 68.984375 Z M 5 19 " clip-rule="nonzero"/></clipPath><clipPath id="92fea1dcea"><path d="M 0 2.984375 L 75 2.984375 L 75 68.984375 L 0 68.984375 Z M 0 2.984375 " clip-rule="nonzero"/></clipPath><clipPath id="e888c45bfb"><path d="M 9 37 L 64 37 L 64 68.984375 L 9 68.984375 Z M 9 37 " clip-rule="nonzero"/></clipPath><clipPath id="4dd16ead28"><path d="M 1 2.984375 L 36 2.984375 L 36 24 L 1 24 Z M 1 2.984375 " clip-rule="nonzero"/></clipPath><clipPath id="c51e39c419"><path d="M 39 2.984375 L 74 2.984375 L 74 24 L 39 24 Z M 39 2.984375 " clip-rule="nonzero"/></clipPath></defs><path stroke-linecap="butt" transform="matrix(0.154835, 0, 0, 0.154206, 0.029846, 2.983289)" fill-opacity="1" fill="#53c1c5" fill-rule="nonzero" stroke-linejoin="miter" d="M 12.194391 196.731021 L 37.675088 196.731021 L 37.675088 293.421135 L 12.194391 293.421135 C 7.678505 293.421135 4.020385 289.748076 4.020385 285.23908 L 4.020385 204.913077 C 4.020385 200.40408 7.678505 196.731021 12.194391 196.731021 Z M 12.194391 196.731021 " stroke="#0d3f4a" stroke-width="8.06" stroke-opacity="1" stroke-miterlimit="10"/><path stroke-linecap="butt" transform="matrix(-0.154835, 0, 0, -0.154206, 143.447627, 78.568711)" fill-opacity="1" fill="#53c1c5" fill-rule="nonzero" stroke-linejoin="miter" d="M 454.479581 196.738925 L 479.960278 196.738925 L 479.960278 293.429039 L 454.479581 293.429039 C 449.963695 293.429039 446.305576 289.75598 446.305576 285.246983 L 446.305576 204.92098 C 446.305576 200.411984 449.963695 196.738925 454.479581 196.738925 Z M 454.479581 196.738925 " stroke="#0d3f4a" stroke-width="8.06" stroke-opacity="1" stroke-miterlimit="10"/><path stroke-linecap="butt" transform="matrix(0.154835, 0, 0, 0.154206, 0.029846, 2.983289)" fill="none" stroke-linejoin="miter" d="M 363.928924 38.029537 L 363.928924 153.66757 " stroke="#0d3f4a" stroke-width="8.06" stroke-opacity="1" stroke-miterlimit="10"/><path stroke-linecap="butt" transform="matrix(0.154835, 0, 0, 0.154206, 0.029846, 2.983289)" fill="none" stroke-linejoin="miter" d="M 119.844029 38.029537 L 119.844029 153.66757 " stroke="#0d3f4a" stroke-width="8.06" stroke-opacity="1" stroke-miterlimit="10"/><g clip-path="url(#52d4989c57)"><path fill="#03354e" d="M 12.242188 19.988281 L 62.757812 19.988281 C 63.175781 19.988281 63.589844 20.03125 64 20.109375 C 64.410156 20.191406 64.808594 20.3125 65.199219 20.472656 C 65.585938 20.632812 65.953125 20.828125 66.300781 21.058594 C 66.648438 21.292969 66.96875 21.554688 67.265625 21.847656 C 67.5625 22.144531 67.828125 22.464844 68.058594 22.8125 C 68.292969 23.160156 68.488281 23.523438 68.648438 23.910156 C 68.808594 24.296875 68.929688 24.691406 69.011719 25.101562 C 69.09375 25.511719 69.132812 25.921875 69.132812 26.339844 L 69.132812 62.007812 C 69.132812 62.425781 69.09375 62.835938 69.011719 63.246094 C 68.929688 63.65625 68.808594 64.050781 68.648438 64.4375 C 68.488281 64.824219 68.292969 65.1875 68.058594 65.535156 C 67.828125 65.882812 67.5625 66.203125 67.265625 66.5 C 66.96875 66.792969 66.648438 67.054688 66.300781 67.289062 C 65.953125 67.519531 65.585938 67.714844 65.199219 67.875 C 64.808594 68.035156 64.410156 68.15625 64 68.238281 C 63.589844 68.316406 63.175781 68.359375 62.757812 68.359375 L 12.242188 68.359375 C 11.824219 68.359375 11.410156 68.316406 10.996094 68.238281 C 10.585938 68.15625 10.1875 68.035156 9.800781 67.875 C 9.414062 67.714844 9.046875 67.519531 8.699219 67.289062 C 8.351562 67.054688 8.027344 66.792969 7.730469 66.5 C 7.4375 66.203125 7.171875 65.882812 6.9375 65.535156 C 6.707031 65.1875 6.511719 64.824219 6.347656 64.4375 C 6.1875 64.050781 6.066406 63.65625 5.988281 63.246094 C 5.90625 62.835938 5.863281 62.425781 5.863281 62.007812 L 5.863281 26.339844 C 5.863281 25.921875 5.90625 25.511719 5.988281 25.101562 C 6.066406 24.691406 6.1875 24.296875 6.347656 23.910156 C 6.511719 23.523438 6.707031 23.160156 6.9375 22.8125 C 7.171875 22.464844 7.4375 22.144531 7.730469 21.847656 C 8.027344 21.554688 8.351562 21.292969 8.699219 21.058594 C 9.046875 20.828125 9.414062 20.632812 9.800781 20.472656 C 10.1875 20.3125 10.585938 20.191406 10.996094 20.109375 C 11.410156 20.03125 11.824219 19.988281 12.242188 19.988281 Z M 12.242188 19.988281 " fill-opacity="1" fill-rule="nonzero"/></g><g clip-path="url(#92fea1dcea)"><path stroke-linecap="butt" transform="matrix(0.154835, 0, 0, 0.154206, 0.029846, 2.983289)" fill="none" stroke-linejoin="miter" d="M 78.873087 110.27481 L 405.126923 110.27481 C 407.826363 110.27481 410.500575 110.553455 413.149558 111.060084 C 415.798541 111.592045 418.37184 112.377319 420.894681 113.415908 C 423.392294 114.454498 425.763765 115.72107 428.009093 117.215625 C 430.254422 118.735511 432.323152 120.432718 434.240511 122.332576 C 436.157871 124.257766 437.873403 126.334944 439.361879 128.589442 C 440.875584 130.843941 442.137005 133.199765 443.17137 135.707577 C 444.205734 138.21539 444.987815 140.773866 445.517612 143.433667 C 446.047409 146.093469 446.299693 148.75327 446.299693 151.463734 L 446.299693 382.765132 C 446.299693 385.475596 446.047409 388.135397 445.517612 390.795199 C 444.987815 393.455 444.205734 396.013476 443.17137 398.521288 C 442.137005 401.029101 440.875584 403.384925 439.361879 405.639424 C 437.873403 407.893922 436.157871 409.9711 434.240511 411.89629 C 432.323152 413.796148 430.254422 415.493355 428.009093 417.013241 C 425.763765 418.507796 423.392294 419.774368 420.894681 420.812957 C 418.37184 421.851547 415.798541 422.636821 413.149558 423.168782 C 410.500575 423.67541 407.826363 423.954056 405.126923 423.954056 L 78.873087 423.954056 C 76.173646 423.954056 73.499435 423.67541 70.825223 423.168782 C 68.17624 422.636821 65.602941 421.851547 63.105329 420.812957 C 60.607716 419.774368 58.236245 418.507796 55.990916 417.013241 C 53.745587 415.493355 51.651629 413.796148 49.73427 411.89629 C 47.842139 409.9711 46.126607 407.893922 44.612902 405.639424 C 43.124426 403.384925 41.863005 401.029101 40.803412 398.521288 C 39.769047 396.013476 38.986966 393.455 38.482398 390.795199 C 37.952601 388.135397 37.675088 385.475596 37.675088 382.765132 L 37.675088 151.463734 C 37.675088 148.75327 37.952601 146.093469 38.482398 143.433667 C 38.986966 140.773866 39.769047 138.21539 40.803412 135.707577 C 41.863005 133.199765 43.124426 130.843941 44.612902 128.589442 C 46.126607 126.334944 47.842139 124.257766 49.73427 122.332576 C 51.651629 120.432718 53.745587 118.735511 55.990916 117.215625 C 58.236245 115.72107 60.607716 114.454498 63.105329 113.415908 C 65.602941 112.377319 68.17624 111.592045 70.825223 111.060084 C 73.499435 110.553455 76.173646 110.27481 78.873087 110.27481 Z M 78.873087 110.27481 " stroke="#0d3f4a" stroke-width="8.06" stroke-opacity="1" stroke-miterlimit="10"/></g><path fill="#53c1c5" d="M 21.128906 28.109375 L 30.839844 28.109375 C 30.976562 28.109375 31.105469 28.132812 31.234375 28.1875 C 31.359375 28.238281 31.46875 28.3125 31.566406 28.40625 C 31.660156 28.503906 31.734375 28.613281 31.789062 28.738281 C 31.839844 28.863281 31.867188 28.992188 31.867188 29.128906 L 31.867188 47.210938 C 31.867188 47.347656 31.839844 47.476562 31.789062 47.601562 C 31.734375 47.726562 31.660156 47.835938 31.566406 47.933594 C 31.46875 48.027344 31.359375 48.101562 31.234375 48.152344 C 31.105469 48.207031 30.976562 48.230469 30.839844 48.230469 L 21.128906 48.230469 C 20.992188 48.230469 20.859375 48.207031 20.734375 48.152344 C 20.609375 48.101562 20.5 48.027344 20.402344 47.933594 C 20.308594 47.835938 20.234375 47.726562 20.179688 47.601562 C 20.128906 47.476562 20.101562 47.347656 20.101562 47.210938 L 20.101562 29.128906 C 20.101562 28.992188 20.128906 28.863281 20.179688 28.738281 C 20.234375 28.613281 20.308594 28.503906 20.402344 28.40625 C 20.5 28.3125 20.609375 28.238281 20.734375 28.1875 C 20.859375 28.132812 20.992188 28.109375 21.128906 28.109375 Z M 21.128906 28.109375 " fill-opacity="1" fill-rule="nonzero"/><path fill="#c1dbd9" d="M 21.960938 29.535156 L 30.003906 29.535156 C 30.140625 29.535156 30.269531 29.558594 30.398438 29.613281 C 30.523438 29.664062 30.632812 29.738281 30.730469 29.832031 C 30.824219 29.929688 30.898438 30.039062 30.953125 30.164062 C 31.003906 30.289062 31.03125 30.417969 31.03125 30.554688 L 31.03125 45.78125 C 31.03125 45.917969 31.003906 46.046875 30.953125 46.171875 C 30.898438 46.296875 30.824219 46.410156 30.730469 46.503906 C 30.632812 46.601562 30.523438 46.675781 30.398438 46.726562 C 30.269531 46.777344 30.140625 46.804688 30.003906 46.804688 L 21.960938 46.804688 C 21.824219 46.804688 21.695312 46.777344 21.570312 46.726562 C 21.441406 46.675781 21.332031 46.601562 21.234375 46.503906 C 21.140625 46.410156 21.066406 46.296875 21.015625 46.171875 C 20.960938 46.046875 20.9375 45.917969 20.9375 45.78125 L 20.9375 30.554688 C 20.9375 30.417969 20.960938 30.289062 21.015625 30.164062 C 21.066406 30.039062 21.140625 29.929688 21.234375 29.832031 C 21.332031 29.738281 21.441406 29.664062 21.570312 29.613281 C 21.695312 29.558594 21.824219 29.535156 21.960938 29.535156 Z M 21.960938 29.535156 " fill-opacity="1" fill-rule="nonzero"/><path fill="#53c1c5" d="M 45.644531 28.109375 L 55.355469 28.109375 C 55.492188 28.109375 55.621094 28.132812 55.746094 28.1875 C 55.875 28.238281 55.984375 28.3125 56.082031 28.40625 C 56.175781 28.503906 56.25 28.613281 56.300781 28.738281 C 56.355469 28.863281 56.378906 28.992188 56.378906 29.128906 L 56.378906 47.210938 C 56.378906 47.347656 56.355469 47.476562 56.300781 47.601562 C 56.25 47.726562 56.175781 47.835938 56.082031 47.933594 C 55.984375 48.027344 55.875 48.101562 55.746094 48.152344 C 55.621094 48.207031 55.492188 48.230469 55.355469 48.230469 L 45.644531 48.230469 C 45.507812 48.230469 45.375 48.207031 45.25 48.152344 C 45.125 48.101562 45.015625 48.027344 44.917969 47.933594 C 44.820312 47.835938 44.746094 47.726562 44.695312 47.601562 C 44.644531 47.476562 44.617188 47.347656 44.617188 47.210938 L 44.617188 29.128906 C 44.617188 28.992188 44.644531 28.863281 44.695312 28.738281 C 44.746094 28.613281 44.820312 28.503906 44.917969 28.40625 C 45.015625 28.3125 45.125 28.238281 45.25 28.1875 C 45.375 28.132812 45.507812 28.109375 45.644531 28.109375 Z M 45.644531 28.109375 " fill-opacity="1" fill-rule="nonzero"/><path fill="#ffffff" d="M 45.863281 56.597656 C 45.863281 60.273438 41.769531 63.25 36.722656 63.25 C 31.675781 63.25 27.582031 60.273438 27.582031 56.597656 C 27.582031 52.925781 31.675781 56.597656 36.722656 56.597656 C 41.769531 56.597656 45.863281 52.925781 45.863281 56.597656 Z M 45.863281 56.597656 " fill-opacity="1" fill-rule="nonzero"/><g clip-path="url(#e888c45bfb)"><path stroke-linecap="butt" transform="matrix(0.154835, 0, 0, 0.154206, 0.029846, 2.983289)" fill="none" stroke-linejoin="miter" d="M 296.014037 347.681084 C 296.014037 371.517971 269.57466 390.82053 236.979551 390.82053 C 204.384441 390.82053 177.945064 371.517971 177.945064 347.681084 C 177.945064 323.869529 204.384441 347.681084 236.979551 347.681084 C 269.57466 347.681084 296.014037 323.869529 296.014037 347.681084 Z M 296.014037 347.681084 " stroke="#0d3f4a" stroke-width="8.06" stroke-opacity="1" stroke-miterlimit="10"/></g><path fill="#6fcacd" d="M 15.910156 3.449219 L 21.257812 3.449219 C 21.457031 3.449219 21.644531 3.488281 21.824219 3.5625 C 22.007812 3.636719 22.167969 3.742188 22.304688 3.878906 C 22.445312 4.019531 22.550781 4.175781 22.625 4.359375 C 22.699219 4.539062 22.738281 4.726562 22.738281 4.921875 L 22.738281 8.730469 C 22.738281 8.925781 22.699219 9.113281 22.625 9.292969 C 22.550781 9.472656 22.445312 9.632812 22.304688 9.773438 C 22.167969 9.910156 22.007812 10.015625 21.824219 10.089844 C 21.644531 10.164062 21.457031 10.203125 21.257812 10.203125 L 15.910156 10.203125 C 15.714844 10.203125 15.523438 10.164062 15.34375 10.089844 C 15.164062 10.015625 15.003906 9.910156 14.863281 9.773438 C 14.726562 9.632812 14.617188 9.472656 14.542969 9.292969 C 14.46875 9.113281 14.429688 8.925781 14.429688 8.730469 L 14.429688 4.921875 C 14.429688 4.726562 14.46875 4.539062 14.542969 4.359375 C 14.617188 4.175781 14.726562 4.019531 14.863281 3.878906 C 15.003906 3.742188 15.164062 3.636719 15.34375 3.5625 C 15.523438 3.488281 15.714844 3.449219 15.910156 3.449219 Z M 15.910156 3.449219 " fill-opacity="1" fill-rule="nonzero"/><g clip-path="url(#4dd16ead28)"><path stroke-linecap="butt" transform="matrix(0.154835, 0, 0, 0.154206, 0.029846, 2.983289)" fill="none" stroke-linejoin="miter" d="M 102.562566 3.021484 L 137.100264 3.021484 C 138.386913 3.021484 139.597877 3.274798 140.758384 3.756096 C 141.944119 4.237393 142.978484 4.921342 143.861478 5.807943 C 144.769701 6.719875 145.450868 7.733132 145.930208 8.92371 C 146.409548 10.088956 146.661832 11.304866 146.661832 12.571438 L 146.661832 37.269594 C 146.661832 38.536166 146.409548 39.752075 145.930208 40.917321 C 145.450868 42.082568 144.769701 43.121157 143.861478 44.033089 C 142.978484 44.919689 141.944119 45.603638 140.758384 46.084935 C 139.597877 46.566233 138.386913 46.819547 137.100264 46.819547 L 102.562566 46.819547 C 101.301146 46.819547 100.064954 46.566233 98.904447 46.084935 C 97.74394 45.603638 96.709575 44.919689 95.801352 44.033089 C 94.918357 43.121157 94.211962 42.082568 93.732622 40.917321 C 93.253282 39.752075 93.000998 38.536166 93.000998 37.269594 L 93.000998 12.571438 C 93.000998 11.304866 93.253282 10.088956 93.732622 8.92371 C 94.211962 7.733132 94.918357 6.719875 95.801352 5.807943 C 96.709575 4.921342 97.74394 4.237393 98.904447 3.756096 C 100.064954 3.274798 101.301146 3.021484 102.562566 3.021484 Z M 102.562566 3.021484 " stroke="#0d3f4a" stroke-width="6.04" stroke-opacity="1" stroke-miterlimit="10"/></g><path fill="#6fcacd" d="M 53.703125 3.449219 L 59.054688 3.449219 C 59.25 3.449219 59.4375 3.488281 59.621094 3.5625 C 59.800781 3.636719 59.960938 3.742188 60.101562 3.878906 C 60.238281 4.019531 60.34375 4.175781 60.421875 4.359375 C 60.496094 4.539062 60.535156 4.726562 60.535156 4.921875 L 60.535156 8.730469 C 60.535156 8.925781 60.496094 9.113281 60.421875 9.292969 C 60.34375 9.472656 60.238281 9.632812 60.101562 9.773438 C 59.960938 9.910156 59.800781 10.015625 59.621094 10.089844 C 59.4375 10.164062 59.25 10.203125 59.054688 10.203125 L 53.703125 10.203125 C 53.507812 10.203125 53.320312 10.164062 53.140625 10.089844 C 52.957031 10.015625 52.796875 9.910156 52.660156 9.773438 C 52.519531 9.632812 52.414062 9.472656 52.339844 9.292969 C 52.265625 9.113281 52.226562 8.925781 52.226562 8.730469 L 52.226562 4.921875 C 52.226562 4.726562 52.265625 4.539062 52.339844 4.359375 C 52.414062 4.175781 52.519531 4.019531 52.660156 3.878906 C 52.796875 3.742188 52.957031 3.636719 53.140625 3.5625 C 53.320312 3.488281 53.507812 3.449219 53.703125 3.449219 Z M 53.703125 3.449219 " fill-opacity="1" fill-rule="nonzero"/><g clip-path="url(#c51e39c419)"><path stroke-linecap="butt" transform="matrix(0.154835, 0, 0, 0.154206, 0.029846, 2.983289)" fill="none" stroke-linejoin="miter" d="M 346.647462 3.021484 L 381.210387 3.021484 C 382.471808 3.021484 383.682772 3.274798 384.868507 3.756096 C 386.029014 4.237393 387.063379 4.921342 387.971602 5.807943 C 388.854596 6.719875 389.535764 7.733132 390.040332 8.92371 C 390.519672 10.088956 390.771956 11.304866 390.771956 12.571438 L 390.771956 37.269594 C 390.771956 38.536166 390.519672 39.752075 390.040332 40.917321 C 389.535764 42.082568 388.854596 43.121157 387.971602 44.033089 C 387.063379 44.919689 386.029014 45.603638 384.868507 46.084935 C 383.682772 46.566233 382.471808 46.819547 381.210387 46.819547 L 346.647462 46.819547 C 345.386041 46.819547 344.175077 46.566233 343.01457 46.084935 C 341.828835 45.603638 340.79447 44.919689 339.911475 44.033089 C 339.003252 43.121157 338.322085 42.082568 337.842746 40.917321 C 337.363406 39.752075 337.111122 38.536166 337.111122 37.269594 L 337.111122 12.571438 C 337.111122 11.304866 337.363406 10.088956 337.842746 8.92371 C 338.322085 7.733132 339.003252 6.719875 339.911475 5.807943 C 340.79447 4.921342 341.828835 4.237393 343.01457 3.756096 C 344.175077 3.274798 345.386041 3.021484 346.647462 3.021484 Z M 346.647462 3.021484 " stroke="#0d3f4a" stroke-width="6.04" stroke-opacity="1" stroke-miterlimit="10"/></g><path fill="#c1dbd9" d="M 46.476562 29.535156 L 54.519531 29.535156 C 54.65625 29.535156 54.789062 29.558594 54.914062 29.613281 C 55.039062 29.664062 55.148438 29.738281 55.246094 29.832031 C 55.34375 29.929688 55.414062 30.039062 55.46875 30.164062 C 55.519531 30.289062 55.546875 30.417969 55.546875 30.554688 L 55.546875 45.78125 C 55.546875 45.917969 55.519531 46.046875 55.46875 46.171875 C 55.414062 46.296875 55.34375 46.410156 55.246094 46.503906 C 55.148438 46.601562 55.039062 46.675781 54.914062 46.726562 C 54.789062 46.777344 54.65625 46.804688 54.519531 46.804688 L 46.476562 46.804688 C 46.339844 46.804688 46.210938 46.777344 46.085938 46.726562 C 45.960938 46.675781 45.847656 46.601562 45.753906 46.503906 C 45.65625 46.410156 45.582031 46.296875 45.53125 46.171875 C 45.476562 46.046875 45.453125 45.917969 45.453125 45.78125 L 45.453125 30.554688 C 45.453125 30.417969 45.476562 30.289062 45.53125 30.164062 C 45.582031 30.039062 45.65625 29.929688 45.753906 29.832031 C 45.847656 29.738281 45.960938 29.664062 46.085938 29.613281 C 46.210938 29.558594 46.339844 29.535156 46.476562 29.535156 Z M 46.476562 29.535156 " fill-opacity="1" fill-rule="nonzero"/></svg>