<svg xmlns="http://www.w3.org/2000/svg" xmlns:xlink="http://www.w3.org/1999/xlink" width="500" zoomAndPan="magnify" viewBox="0 0 375 374.999991" height="500" preserveAspectRatio="xMidYMid meet" version="1.0"><defs><clipPath id="1193cea4c2"><path d="M 0 16.070312 L 375 16.070312 L 375 337.820312 L 0 337.820312 Z M 0 16.070312 " clip-rule="nonzero"/></clipPath><clipPath id="46e59d0f79"><path d="M 0 16.070312 L 307 16.070312 L 307 229 L 0 229 Z M 0 16.070312 " clip-rule="nonzero"/></clipPath></defs><g clip-path="url(#1193cea4c2)"><path fill="#1800ad" d="M 185.472656 16.253906 C 170.371094 16.066406 155.386719 17.449219 140.734375 20.285156 L 140.734375 33.34375 C 141.777344 33.746094 142.738281 34.292969 143.613281 34.984375 C 144.488281 35.679688 145.242188 36.484375 145.871094 37.40625 C 146.503906 38.328125 146.984375 39.324219 147.3125 40.390625 C 147.640625 41.460938 147.804688 42.550781 147.800781 43.667969 C 147.800781 44.394531 147.726562 45.113281 147.585938 45.820312 C 147.441406 46.53125 147.230469 47.222656 146.949219 47.890625 C 146.671875 48.558594 146.328125 49.195312 145.925781 49.796875 C 145.519531 50.398438 145.0625 50.953125 144.546875 51.464844 C 144.035156 51.976562 143.472656 52.433594 142.871094 52.832031 C 142.265625 53.234375 141.628906 53.570312 140.957031 53.847656 C 140.289062 54.121094 139.597656 54.332031 138.886719 54.46875 C 138.175781 54.609375 137.457031 54.675781 136.730469 54.675781 C 136.007812 54.671875 135.289062 54.601562 134.578125 54.457031 C 133.871094 54.3125 133.179688 54.101562 132.511719 53.824219 C 131.84375 53.542969 131.207031 53.203125 130.605469 52.796875 C 130.003906 52.390625 129.449219 51.933594 128.9375 51.417969 C 128.425781 50.90625 127.96875 50.347656 127.570312 49.742188 C 127.167969 49.140625 126.828125 48.5 126.554688 47.832031 C 126.28125 47.160156 126.070312 46.46875 125.933594 45.757812 C 125.792969 45.046875 125.726562 44.328125 125.726562 43.605469 C 125.730469 42.546875 125.882812 41.507812 126.183594 40.492188 C 126.488281 39.476562 126.925781 38.523438 127.503906 37.636719 C 128.078125 36.746094 128.769531 35.957031 129.570312 35.265625 C 130.375 34.578125 131.261719 34.015625 132.226562 33.578125 L 132.226562 22.117188 C 79.429688 34.617188 32.011719 67.519531 2.148438 122.734375 C 8.324219 122.757812 8.609375 122.773438 15.097656 122.789062 C 30.023438 122.832031 44.980469 122.855469 56.273438 122.824219 C 61.917969 122.808594 66.652344 122.777344 69.984375 122.730469 C 70.710938 122.722656 71.082031 122.710938 71.671875 122.699219 C 71.730469 121.265625 71.753906 119.667969 71.796875 117.503906 C 71.847656 112.167969 71.832031 105.054688 71.734375 97.960938 C 71.585938 83.777344 71.285156 69.667969 71.285156 69.667969 C 71.277344 69.386719 71.300781 69.105469 71.351562 68.824219 C 71.398438 68.546875 71.476562 68.277344 71.582031 68.011719 C 71.683594 67.75 71.8125 67.5 71.96875 67.261719 C 72.121094 67.023438 72.300781 66.804688 72.5 66.601562 C 72.695312 66.398438 72.910156 66.21875 73.144531 66.058594 C 73.382812 65.898438 73.628906 65.765625 73.890625 65.65625 C 74.152344 65.542969 74.421875 65.460938 74.699219 65.40625 C 74.976562 65.351562 75.257812 65.320312 75.539062 65.320312 L 164.832031 65.320312 C 164.992188 64.742188 165.199219 64.179688 165.449219 63.636719 C 165.699219 63.089844 165.996094 62.570312 166.332031 62.074219 C 166.667969 61.574219 167.042969 61.109375 167.457031 60.671875 C 167.867188 60.234375 168.3125 59.835938 168.792969 59.472656 C 169.269531 59.109375 169.773438 58.789062 170.304688 58.507812 C 170.835938 58.226562 171.386719 57.988281 171.953125 57.796875 C 172.523438 57.605469 173.105469 57.460938 173.699219 57.367188 C 174.289062 57.269531 174.886719 57.222656 175.488281 57.222656 C 176.210938 57.226562 176.929688 57.296875 177.640625 57.441406 C 178.351562 57.585938 179.042969 57.796875 179.710938 58.074219 C 180.378906 58.355469 181.015625 58.695312 181.617188 59.101562 C 182.21875 59.503906 182.773438 59.964844 183.285156 60.476562 C 183.796875 60.992188 184.25 61.550781 184.652344 62.15625 C 185.054688 62.757812 185.390625 63.394531 185.667969 64.066406 C 185.941406 64.738281 186.148438 65.425781 186.289062 66.140625 C 186.429688 66.851562 186.496094 67.570312 186.496094 68.292969 C 186.492188 69.019531 186.417969 69.734375 186.277344 70.445312 C 186.132812 71.15625 185.921875 71.847656 185.644531 72.515625 C 185.363281 73.183594 185.019531 73.820312 184.617188 74.421875 C 184.210938 75.019531 183.753906 75.578125 183.238281 76.089844 C 182.726562 76.601562 182.167969 77.054688 181.5625 77.457031 C 180.960938 77.859375 180.324219 78.195312 179.652344 78.472656 C 178.980469 78.746094 178.292969 78.953125 177.582031 79.09375 C 176.867188 79.234375 176.152344 79.300781 175.425781 79.300781 C 174.46875 79.292969 173.523438 79.167969 172.597656 78.914062 C 171.675781 78.664062 170.796875 78.300781 169.964844 77.820312 C 169.136719 77.339844 168.378906 76.761719 167.699219 76.085938 C 167.019531 75.410156 166.4375 74.660156 165.957031 73.832031 L 79.859375 73.832031 C 79.929688 77.21875 80.113281 85.804688 80.242188 97.871094 C 80.296875 104.992188 80.355469 112.140625 80.300781 117.597656 C 80.265625 120.324219 80.222656 122.621094 80.132812 124.34375 C 80.089844 125.207031 80.042969 125.910156 79.960938 126.5625 C 79.917969 126.890625 79.875 127.1875 79.761719 127.628906 C 79.707031 127.847656 79.644531 128.097656 79.449219 128.515625 C 79.253906 128.929688 79.058594 129.664062 77.671875 130.464844 C 75.976562 131.433594 76.199219 131.003906 75.976562 131.03125 C 75.75 131.0625 75.578125 131.078125 75.402344 131.089844 C 75.042969 131.117188 74.640625 131.132812 74.144531 131.148438 C 73.152344 131.183594 71.796875 131.214844 70.101562 131.238281 C 66.707031 131.289062 61.960938 131.316406 56.296875 131.332031 C 44.972656 131.363281 30.007812 131.34375 15.078125 131.296875 C 7.609375 131.277344 7.167969 131.261719 0.179688 131.234375 L 0.0507812 126.503906 L 2.433594 214.160156 C 2.65625 213.953125 2.769531 213.839844 2.996094 213.628906 C 9.597656 207.40625 18.144531 199.417969 26.621094 191.523438 C 40.597656 178.507812 52.148438 167.8125 56.546875 163.742188 C 55.765625 162.1875 55.378906 160.542969 55.375 158.808594 C 55.375 158.082031 55.449219 157.367188 55.589844 156.65625 C 55.734375 155.945312 55.945312 155.253906 56.226562 154.585938 C 56.503906 153.917969 56.847656 153.28125 57.25 152.679688 C 57.65625 152.082031 58.113281 151.523438 58.628906 151.011719 C 59.140625 150.5 59.699219 150.046875 60.304688 149.644531 C 60.90625 149.242188 61.546875 148.90625 62.214844 148.628906 C 62.886719 148.355469 63.574219 148.148438 64.289062 148.007812 C 65 147.867188 65.714844 147.800781 66.441406 147.800781 C 67.164062 147.804688 67.882812 147.875 68.59375 148.019531 C 69.304688 148.164062 69.992188 148.375 70.664062 148.652344 C 71.332031 148.933594 71.964844 149.273438 72.566406 149.679688 C 73.171875 150.082031 73.726562 150.542969 74.238281 151.054688 C 74.75 151.570312 75.203125 152.128906 75.605469 152.734375 C 76.003906 153.335938 76.34375 153.972656 76.621094 154.644531 C 76.894531 155.316406 77.101562 156.007812 77.242188 156.71875 C 77.382812 157.429688 77.449219 158.148438 77.449219 158.871094 C 77.445312 159.597656 77.375 160.3125 77.230469 161.023438 C 77.085938 161.734375 76.875 162.425781 76.597656 163.09375 C 76.316406 163.761719 75.976562 164.398438 75.570312 165 C 75.167969 165.601562 74.707031 166.15625 74.195312 166.667969 C 73.679688 167.179688 73.121094 167.636719 72.515625 168.035156 C 71.914062 168.4375 71.277344 168.773438 70.605469 169.050781 C 69.933594 169.324219 69.246094 169.53125 68.53125 169.671875 C 67.820312 169.8125 67.101562 169.878906 66.378906 169.878906 C 65.234375 169.871094 64.121094 169.6875 63.035156 169.335938 C 59.273438 172.816406 46.960938 184.21875 32.421875 197.757812 C 23.953125 205.644531 15.40625 213.621094 8.832031 219.820312 C 7.945312 220.652344 7.453125 221.132812 6.644531 221.898438 C 12.519531 223.117188 48.726562 230.617188 63.699219 233.019531 L 111.703125 170.121094 L 111.703125 125.417969 C 110.710938 124.988281 109.808594 124.425781 108.984375 123.730469 C 108.160156 123.039062 107.457031 122.242188 106.867188 121.339844 C 106.277344 120.441406 105.828125 119.472656 105.519531 118.441406 C 105.214844 117.410156 105.058594 116.355469 105.0625 115.277344 C 105.066406 114.554688 105.136719 113.835938 105.28125 113.125 C 105.425781 112.414062 105.636719 111.726562 105.914062 111.058594 C 106.195312 110.386719 106.535156 109.753906 106.941406 109.152344 C 107.34375 108.550781 107.800781 107.996094 108.316406 107.484375 C 108.828125 106.972656 109.386719 106.515625 109.992188 106.117188 C 110.597656 105.714844 111.234375 105.375 111.902344 105.101562 C 112.574219 104.824219 113.265625 104.617188 113.976562 104.476562 C 114.6875 104.339844 115.40625 104.269531 116.128906 104.273438 C 116.855469 104.273438 117.574219 104.347656 118.28125 104.488281 C 118.992188 104.632812 119.683594 104.84375 120.351562 105.125 C 121.019531 105.402344 121.65625 105.746094 122.257812 106.148438 C 122.859375 106.554688 123.414062 107.011719 123.925781 107.527344 C 124.4375 108.039062 124.890625 108.597656 125.292969 109.203125 C 125.695312 109.808594 126.03125 110.445312 126.308594 111.113281 C 126.582031 111.785156 126.789062 112.476562 126.929688 113.1875 C 127.070312 113.898438 127.136719 114.617188 127.136719 115.339844 C 127.128906 116.4375 126.964844 117.507812 126.640625 118.558594 C 126.316406 119.605469 125.84375 120.582031 125.226562 121.488281 C 124.609375 122.394531 123.875 123.195312 123.019531 123.882812 C 122.164062 124.570312 121.230469 125.117188 120.210938 125.527344 L 120.210938 171.554688 C 120.210938 172.511719 119.921875 173.371094 119.339844 174.132812 L 72.679688 235.289062 C 80.226562 240.230469 93.171875 256 93.171875 256 C 93.171875 256 92.105469 254.734375 91.308594 253.789062 C 95.820312 247.753906 99.945312 242.210938 104.78125 235.773438 C 121.886719 212.992188 138.683594 190.75 138.683594 190.75 C 139.085938 190.222656 139.585938 189.808594 140.183594 189.511719 C 140.777344 189.214844 141.410156 189.066406 142.074219 189.066406 L 169.539062 189.066406 L 169.539062 162.714844 C 168.578125 162.273438 167.695312 161.703125 166.898438 161.007812 C 166.101562 160.3125 165.414062 159.519531 164.84375 158.628906 C 164.273438 157.738281 163.84375 156.78125 163.546875 155.765625 C 163.25 154.75 163.101562 153.710938 163.105469 152.652344 C 163.105469 151.929688 163.179688 151.210938 163.324219 150.5 C 163.46875 149.789062 163.675781 149.101562 163.957031 148.429688 C 164.234375 147.761719 164.578125 147.128906 164.980469 146.527344 C 165.386719 145.925781 165.84375 145.367188 166.359375 144.859375 C 166.871094 144.347656 167.429688 143.890625 168.035156 143.488281 C 168.636719 143.089844 169.277344 142.75 169.945312 142.476562 C 170.617188 142.199219 171.308594 141.992188 172.019531 141.851562 C 172.730469 141.714844 173.445312 141.644531 174.171875 141.648438 C 174.898438 141.648438 175.613281 141.722656 176.324219 141.863281 C 177.035156 142.007812 177.722656 142.21875 178.394531 142.5 C 179.0625 142.777344 179.695312 143.117188 180.300781 143.523438 C 180.902344 143.929688 181.457031 144.386719 181.96875 144.902344 C 182.480469 145.414062 182.9375 145.972656 183.335938 146.578125 C 183.738281 147.179688 184.074219 147.816406 184.351562 148.488281 C 184.625 149.160156 184.835938 149.851562 184.972656 150.5625 C 185.113281 151.273438 185.183594 151.992188 185.179688 152.714844 C 185.171875 153.832031 185 154.921875 184.664062 155.984375 C 184.328125 157.046875 183.839844 158.039062 183.203125 158.953125 C 182.566406 159.871094 181.808594 160.671875 180.929688 161.359375 C 180.050781 162.042969 179.089844 162.582031 178.046875 162.976562 L 178.046875 193.320312 C 178.046875 193.601562 178.019531 193.878906 177.964844 194.152344 C 177.910156 194.425781 177.828125 194.691406 177.722656 194.949219 C 177.617188 195.207031 177.484375 195.453125 177.328125 195.683594 C 177.175781 195.917969 177 196.132812 176.800781 196.328125 C 176.601562 196.527344 176.386719 196.703125 176.15625 196.859375 C 175.921875 197.011719 175.675781 197.144531 175.417969 197.25 C 175.160156 197.359375 174.894531 197.4375 174.621094 197.492188 C 174.347656 197.546875 174.070312 197.574219 173.792969 197.574219 L 144.203125 197.574219 C 143.011719 199.148438 128.042969 218.96875 111.589844 240.882812 C 107.390625 246.476562 103.882812 251.1875 99.894531 256.523438 L 200.003906 264.324219 L 200.003906 181.835938 C 198.972656 181.429688 198.023438 180.878906 197.15625 180.1875 C 196.289062 179.496094 195.546875 178.691406 194.921875 177.777344 C 194.296875 176.859375 193.820312 175.871094 193.496094 174.8125 C 193.167969 173.753906 193.003906 172.667969 193.003906 171.558594 C 193.007812 170.835938 193.078125 170.117188 193.222656 169.40625 C 193.367188 168.695312 193.578125 168.007812 193.855469 167.339844 C 194.132812 166.671875 194.476562 166.035156 194.882812 165.433594 C 195.285156 164.832031 195.746094 164.277344 196.257812 163.765625 C 196.773438 163.253906 197.332031 162.796875 197.933594 162.398438 C 198.539062 161.996094 199.175781 161.65625 199.84375 161.382812 C 200.515625 161.105469 201.207031 160.898438 201.917969 160.761719 C 202.628906 160.621094 203.347656 160.550781 204.070312 160.554688 C 204.796875 160.554688 205.515625 160.628906 206.226562 160.773438 C 206.9375 160.914062 207.628906 161.125 208.296875 161.40625 C 208.964844 161.683594 209.597656 162.027344 210.199219 162.429688 C 210.800781 162.835938 211.359375 163.292969 211.867188 163.808594 C 212.378906 164.324219 212.835938 164.882812 213.238281 165.484375 C 213.636719 166.089844 213.976562 166.726562 214.25 167.394531 C 214.527344 168.066406 214.734375 168.757812 214.875 169.46875 C 215.011719 170.179688 215.082031 170.898438 215.078125 171.621094 C 215.074219 172.6875 214.921875 173.730469 214.613281 174.75 C 214.308594 175.769531 213.863281 176.726562 213.285156 177.617188 C 212.703125 178.511719 212.003906 179.300781 211.195312 179.992188 C 210.382812 180.683594 209.492188 181.242188 208.519531 181.675781 L 208.519531 268.96875 L 261.957031 337.480469 L 265.945312 272.324219 L 242.933594 245.308594 C 242.277344 245.433594 241.613281 245.5 240.945312 245.503906 C 240.21875 245.503906 239.5 245.429688 238.789062 245.289062 C 238.082031 245.144531 237.390625 244.933594 236.722656 244.652344 C 236.050781 244.375 235.417969 244.03125 234.816406 243.628906 C 234.214844 243.222656 233.660156 242.765625 233.148438 242.25 C 232.636719 241.738281 232.179688 241.179688 231.777344 240.574219 C 231.378906 239.972656 231.039062 239.335938 230.765625 238.664062 C 230.488281 237.992188 230.28125 237.300781 230.140625 236.589844 C 230 235.878906 229.933594 235.160156 229.9375 234.4375 C 229.941406 233.710938 230.011719 232.996094 230.15625 232.285156 C 230.300781 231.574219 230.511719 230.882812 230.789062 230.214844 C 231.070312 229.546875 231.410156 228.910156 231.816406 228.308594 C 232.21875 227.707031 232.679688 227.152344 233.191406 226.640625 C 233.707031 226.128906 234.265625 225.675781 234.867188 225.273438 C 235.472656 224.871094 236.109375 224.535156 236.78125 224.257812 C 237.449219 223.984375 238.140625 223.777344 238.851562 223.636719 C 239.5625 223.496094 240.28125 223.429688 241.003906 223.429688 C 241.730469 223.433594 242.449219 223.503906 243.160156 223.648438 C 243.867188 223.792969 244.558594 224.003906 245.226562 224.285156 C 245.894531 224.5625 246.53125 224.90625 247.132812 225.308594 C 247.734375 225.714844 248.289062 226.171875 248.800781 226.6875 C 249.3125 227.199219 249.769531 227.757812 250.167969 228.363281 C 250.570312 228.96875 250.910156 229.605469 251.183594 230.273438 C 251.460938 230.945312 251.667969 231.636719 251.804688 232.347656 C 251.945312 233.058594 252.015625 233.777344 252.011719 234.5 C 252 236.734375 251.371094 238.777344 250.121094 240.628906 L 270.996094 265.132812 L 334.707031 250.832031 L 316.660156 214.367188 L 242.816406 214.367188 C 242.539062 214.367188 242.261719 214.339844 241.988281 214.285156 C 241.710938 214.230469 241.445312 214.152344 241.1875 214.042969 C 240.929688 213.9375 240.683594 213.804688 240.453125 213.652344 C 240.21875 213.496094 240.003906 213.320312 239.808594 213.121094 C 239.609375 212.925781 239.433594 212.707031 239.277344 212.476562 C 239.121094 212.246094 238.992188 212 238.882812 211.742188 C 238.777344 211.484375 238.695312 211.214844 238.640625 210.941406 C 238.585938 210.667969 238.5625 210.390625 238.5625 210.113281 L 238.5625 162.601562 C 237.492188 162.21875 236.503906 161.679688 235.601562 160.992188 C 234.695312 160.300781 233.917969 159.492188 233.265625 158.5625 C 232.613281 157.632812 232.113281 156.625 231.769531 155.542969 C 231.429688 154.460938 231.257812 153.347656 231.257812 152.210938 C 231.257812 151.488281 231.332031 150.769531 231.476562 150.058594 C 231.617188 149.347656 231.832031 148.660156 232.109375 147.992188 C 232.390625 147.324219 232.730469 146.6875 233.136719 146.085938 C 233.539062 145.484375 234 144.929688 234.511719 144.417969 C 235.027344 143.90625 235.585938 143.449219 236.1875 143.050781 C 236.792969 142.648438 237.429688 142.308594 238.101562 142.035156 C 238.769531 141.757812 239.460938 141.550781 240.171875 141.414062 C 240.882812 141.273438 241.601562 141.203125 242.328125 141.207031 C 243.050781 141.207031 243.769531 141.28125 244.480469 141.425781 C 245.191406 141.566406 245.878906 141.777344 246.550781 142.058594 C 247.21875 142.335938 247.855469 142.679688 248.457031 143.082031 C 249.058594 143.488281 249.613281 143.945312 250.125 144.460938 C 250.636719 144.976562 251.09375 145.535156 251.492188 146.136719 C 251.894531 146.742188 252.230469 147.378906 252.507812 148.050781 C 252.78125 148.71875 252.992188 149.410156 253.128906 150.121094 C 253.269531 150.832031 253.335938 151.550781 253.335938 152.277344 C 253.332031 153.3125 253.183594 154.328125 252.894531 155.320312 C 252.601562 156.316406 252.179688 157.25 251.628906 158.128906 C 251.074219 159.003906 250.410156 159.785156 249.636719 160.472656 C 248.863281 161.164062 248.007812 161.730469 247.074219 162.179688 L 247.074219 205.859375 L 319.292969 205.859375 C 320.101562 205.859375 320.851562 206.070312 321.539062 206.5 C 322.226562 206.925781 322.75 207.5 323.109375 208.226562 L 340.535156 243.441406 L 373.617188 167.101562 L 274.523438 167.101562 C 274.246094 167.101562 273.96875 167.074219 273.695312 167.023438 C 273.417969 166.96875 273.152344 166.886719 272.894531 166.78125 C 272.636719 166.671875 272.394531 166.542969 272.160156 166.386719 C 271.929688 166.230469 271.714844 166.054688 271.515625 165.855469 C 271.316406 165.660156 271.140625 165.445312 270.984375 165.210938 C 270.832031 164.980469 270.699219 164.734375 270.59375 164.476562 C 270.488281 164.21875 270.40625 163.953125 270.351562 163.679688 C 270.296875 163.40625 270.269531 163.128906 270.269531 162.847656 L 270.269531 108.457031 C 269.328125 108.007812 268.464844 107.4375 267.679688 106.746094 C 266.898438 106.054688 266.226562 105.269531 265.667969 104.386719 C 265.109375 103.503906 264.683594 102.5625 264.394531 101.558594 C 264.101562 100.558594 263.957031 99.535156 263.957031 98.488281 C 263.957031 97.765625 264.027344 97.046875 264.167969 96.335938 C 264.308594 95.625 264.519531 94.9375 264.796875 94.265625 C 265.074219 93.597656 265.414062 92.960938 265.816406 92.359375 C 266.21875 91.757812 266.675781 91.199219 267.191406 90.6875 C 267.703125 90.175781 268.257812 89.714844 268.859375 89.3125 C 269.460938 88.910156 270.097656 88.570312 270.769531 88.292969 C 271.4375 88.015625 272.128906 87.808594 272.839844 87.664062 C 273.550781 87.523438 274.265625 87.453125 274.992188 87.453125 C 275.714844 87.453125 276.433594 87.523438 277.144531 87.664062 C 277.855469 87.808594 278.542969 88.015625 279.214844 88.292969 C 279.882812 88.570312 280.519531 88.910156 281.121094 89.3125 C 281.726562 89.714844 282.285156 90.171875 282.796875 90.683594 C 283.308594 91.199219 283.765625 91.753906 284.167969 92.359375 C 284.570312 92.960938 284.910156 93.597656 285.191406 94.265625 C 285.46875 94.933594 285.675781 95.625 285.816406 96.335938 C 285.960938 97.046875 286.03125 97.765625 286.03125 98.488281 C 286.027344 99.617188 285.855469 100.722656 285.515625 101.796875 C 285.171875 102.875 284.679688 103.875 284.03125 104.800781 C 283.382812 105.722656 282.609375 106.53125 281.714844 107.21875 C 280.816406 107.90625 279.839844 108.441406 278.78125 108.828125 L 278.78125 158.59375 L 374.644531 158.59375 C 374.941406 158.679688 375.222656 158.796875 375.492188 158.945312 C 375.871094 134.507812 373.292969 120.140625 350.375 84.101562 L 313.605469 103.246094 L 313.605469 127.023438 C 314.636719 127.429688 315.589844 127.980469 316.457031 128.671875 C 317.328125 129.367188 318.074219 130.171875 318.699219 131.09375 C 319.324219 132.011719 319.796875 133 320.125 134.066406 C 320.449219 135.128906 320.609375 136.214844 320.609375 137.324219 C 320.605469 138.050781 320.53125 138.769531 320.390625 139.476562 C 320.246094 140.1875 320.035156 140.878906 319.753906 141.546875 C 319.476562 142.214844 319.132812 142.851562 318.730469 143.453125 C 318.324219 144.054688 317.867188 144.609375 317.355469 145.121094 C 316.839844 145.632812 316.28125 146.089844 315.675781 146.488281 C 315.074219 146.890625 314.4375 147.226562 313.765625 147.503906 C 313.09375 147.777344 312.402344 147.984375 311.691406 148.125 C 310.980469 148.265625 310.265625 148.332031 309.539062 148.332031 C 308.816406 148.328125 308.097656 148.257812 307.386719 148.113281 C 306.679688 147.96875 305.988281 147.757812 305.316406 147.480469 C 304.648438 147.199219 304.015625 146.859375 303.414062 146.453125 C 302.8125 146.050781 302.257812 145.589844 301.742188 145.078125 C 301.234375 144.5625 300.777344 144.003906 300.378906 143.402344 C 299.976562 142.796875 299.636719 142.160156 299.363281 141.488281 C 299.085938 140.820312 298.878906 140.128906 298.742188 139.417969 C 298.601562 138.707031 298.53125 137.988281 298.535156 137.261719 C 298.539062 136.199219 298.691406 135.15625 298.996094 134.136719 C 299.300781 133.113281 299.746094 132.160156 300.328125 131.265625 C 300.910156 130.375 301.605469 129.582031 302.417969 128.894531 C 303.230469 128.203125 304.121094 127.640625 305.097656 127.210938 L 305.097656 100.671875 C 305.097656 99.875 305.300781 99.136719 305.714844 98.457031 C 306.125 97.777344 306.683594 97.253906 307.390625 96.886719 L 344.25 77.703125 C 336.664062 71.136719 328.777344 65.070312 320.617188 59.53125 L 263.980469 59.53125 C 263.574219 60.566406 263.027344 61.515625 262.335938 62.386719 C 261.644531 63.253906 260.839844 64 259.921875 64.628906 C 259.003906 65.253906 258.015625 65.730469 256.957031 66.058594 C 255.894531 66.382812 254.808594 66.546875 253.699219 66.546875 C 252.972656 66.546875 252.253906 66.472656 251.546875 66.328125 C 250.835938 66.1875 250.144531 65.972656 249.476562 65.695312 C 248.808594 65.414062 248.171875 65.074219 247.570312 64.667969 C 246.96875 64.265625 246.410156 63.804688 245.902344 63.292969 C 245.390625 62.777344 244.933594 62.21875 244.535156 61.613281 C 244.132812 61.011719 243.792969 60.375 243.519531 59.703125 C 243.242188 59.03125 243.035156 58.34375 242.898438 57.632812 C 242.757812 56.917969 242.691406 56.203125 242.691406 55.476562 C 242.695312 54.753906 242.765625 54.035156 242.910156 53.324219 C 243.054688 52.613281 243.265625 51.925781 243.542969 51.257812 C 243.824219 50.585938 244.167969 49.953125 244.570312 49.351562 C 244.972656 48.75 245.433594 48.195312 245.949219 47.683594 C 246.460938 47.171875 247.019531 46.714844 247.625 46.316406 C 248.226562 45.914062 248.863281 45.578125 249.535156 45.300781 C 250.203125 45.027344 250.894531 44.816406 251.605469 44.679688 C 252.316406 44.539062 253.035156 44.46875 253.761719 44.472656 C 254.824219 44.476562 255.863281 44.628906 256.882812 44.933594 C 257.902344 45.238281 258.859375 45.683594 259.75 46.261719 C 260.640625 46.84375 261.433594 47.539062 262.125 48.347656 C 262.8125 49.160156 263.375 50.050781 263.808594 51.023438 L 307.285156 51.023438 C 279.121094 34.359375 248.421875 23.582031 217.375 18.929688 C 220.214844 19.355469 223.046875 19.816406 225.878906 20.34375 L 225.613281 115.96875 C 225.613281 116.246094 225.585938 116.523438 225.53125 116.796875 C 225.472656 117.074219 225.394531 117.339844 225.285156 117.597656 C 225.175781 117.855469 225.046875 118.101562 224.890625 118.332031 C 224.734375 118.566406 224.554688 118.78125 224.359375 118.976562 C 224.160156 119.171875 223.945312 119.351562 223.710938 119.503906 C 223.480469 119.660156 223.230469 119.789062 222.972656 119.894531 C 222.714844 120 222.449219 120.082031 222.175781 120.136719 C 221.898438 120.1875 221.621094 120.214844 221.339844 120.214844 L 166.949219 120.058594 C 166.503906 121 165.929688 121.863281 165.234375 122.644531 C 164.542969 123.421875 163.753906 124.09375 162.867188 124.648438 C 161.984375 125.207031 161.042969 125.628906 160.039062 125.917969 C 159.035156 126.207031 158.011719 126.347656 156.964844 126.347656 C 156.242188 126.34375 155.523438 126.273438 154.816406 126.128906 C 154.105469 125.984375 153.414062 125.773438 152.746094 125.496094 C 152.078125 125.214844 151.441406 124.875 150.839844 124.46875 C 150.238281 124.066406 149.683594 123.605469 149.171875 123.09375 C 148.660156 122.578125 148.207031 122.019531 147.804688 121.414062 C 147.402344 120.8125 147.066406 120.175781 146.789062 119.503906 C 146.515625 118.835938 146.308594 118.144531 146.167969 117.433594 C 146.027344 116.722656 145.957031 116.003906 145.960938 115.277344 C 145.960938 114.554688 146.035156 113.835938 146.179688 113.125 C 146.320312 112.414062 146.53125 111.726562 146.8125 111.058594 C 147.089844 110.386719 147.429688 109.753906 147.835938 109.152344 C 148.242188 108.550781 148.699219 107.996094 149.214844 107.484375 C 149.726562 106.972656 150.285156 106.515625 150.890625 106.117188 C 151.492188 105.714844 152.128906 105.375 152.800781 105.101562 C 153.46875 104.824219 154.160156 104.617188 154.871094 104.476562 C 155.582031 104.339844 156.300781 104.269531 157.027344 104.273438 C 158.15625 104.273438 159.261719 104.449219 160.339844 104.792969 C 161.417969 105.132812 162.421875 105.632812 163.34375 106.28125 C 164.269531 106.933594 165.074219 107.707031 165.761719 108.605469 C 166.449219 109.503906 166.988281 110.484375 167.371094 111.550781 L 217.113281 111.695312 L 217.375 18.929688 C 206.75 17.335938 196.09375 16.386719 185.476562 16.253906 Z M 350.371094 84.101562 C 349.835938 83.261719 349.445312 82.570312 348.886719 81.703125 C 349.441406 82.570312 349.835938 83.261719 350.371094 84.101562 Z M 63.699219 233.019531 C 66.300781 233.4375 68.3125 233.714844 69.121094 233.714844 C 68.3125 233.714844 66.300781 233.4375 63.699219 233.019531 Z M 140.683594 20.292969 C 137.867188 20.839844 135.0625 21.445312 132.273438 22.105469 C 135.0625 21.445312 137.867188 20.839844 140.683594 20.292969 Z M 314.6875 55.617188 C 316.667969 56.894531 318.636719 58.191406 320.59375 59.519531 C 318.636719 58.191406 316.671875 56.886719 314.6875 55.617188 Z M 314.6875 55.617188 " fill-opacity="1" fill-rule="nonzero"/></g><g clip-path="url(#46e59d0f79)"><path fill="#004aad" d="M 185.472656 16.253906 C 170.371094 16.066406 155.386719 17.449219 140.734375 20.285156 L 140.734375 33.34375 C 141.777344 33.746094 142.738281 34.292969 143.613281 34.984375 C 144.488281 35.679688 145.242188 36.484375 145.871094 37.40625 C 146.503906 38.328125 146.984375 39.324219 147.3125 40.390625 C 147.640625 41.460938 147.804688 42.550781 147.800781 43.667969 C 147.800781 44.394531 147.726562 45.113281 147.585938 45.820312 C 147.441406 46.53125 147.230469 47.222656 146.949219 47.890625 C 146.671875 48.558594 146.328125 49.195312 145.925781 49.796875 C 145.519531 50.398438 145.0625 50.953125 144.546875 51.464844 C 144.035156 51.976562 143.472656 52.433594 142.871094 52.832031 C 142.265625 53.234375 141.628906 53.570312 140.957031 53.847656 C 140.289062 54.121094 139.597656 54.332031 138.886719 54.46875 C 138.175781 54.609375 137.457031 54.675781 136.730469 54.675781 C 136.007812 54.671875 135.289062 54.601562 134.578125 54.457031 C 133.871094 54.3125 133.179688 54.101562 132.511719 53.824219 C 131.84375 53.542969 131.207031 53.203125 130.605469 52.796875 C 130.003906 52.390625 129.449219 51.933594 128.9375 51.417969 C 128.425781 50.90625 127.96875 50.347656 127.570312 49.742188 C 127.167969 49.140625 126.828125 48.5 126.554688 47.832031 C 126.28125 47.160156 126.070312 46.46875 125.933594 45.757812 C 125.792969 45.046875 125.726562 44.328125 125.726562 43.605469 C 125.730469 42.546875 125.882812 41.507812 126.183594 40.492188 C 126.488281 39.476562 126.925781 38.523438 127.503906 37.636719 C 128.078125 36.746094 128.769531 35.957031 129.570312 35.265625 C 130.375 34.578125 131.261719 34.015625 132.226562 33.578125 L 132.226562 22.117188 C 79.429688 34.617188 32.011719 67.519531 2.148438 122.734375 C 8.324219 122.757812 8.609375 122.773438 15.097656 122.789062 C 30.023438 122.832031 44.980469 122.855469 56.273438 122.824219 C 61.917969 122.808594 66.652344 122.777344 69.984375 122.730469 C 70.710938 122.722656 71.082031 122.710938 71.671875 122.699219 C 71.730469 121.265625 71.753906 119.667969 71.796875 117.503906 C 71.847656 112.167969 71.832031 105.054688 71.734375 97.960938 C 71.585938 83.777344 71.285156 69.667969 71.285156 69.667969 C 71.277344 69.386719 71.300781 69.105469 71.351562 68.824219 C 71.398438 68.546875 71.476562 68.277344 71.582031 68.011719 C 71.683594 67.75 71.8125 67.5 71.96875 67.261719 C 72.121094 67.023438 72.300781 66.804688 72.5 66.601562 C 72.695312 66.398438 72.910156 66.21875 73.144531 66.058594 C 73.382812 65.898438 73.628906 65.765625 73.890625 65.65625 C 74.152344 65.542969 74.421875 65.460938 74.699219 65.40625 C 74.976562 65.351562 75.257812 65.320312 75.539062 65.320312 L 164.832031 65.320312 C 164.992188 64.742188 165.199219 64.179688 165.449219 63.636719 C 165.699219 63.089844 165.996094 62.570312 166.332031 62.074219 C 166.667969 61.574219 167.042969 61.109375 167.457031 60.671875 C 167.867188 60.234375 168.3125 59.835938 168.792969 59.472656 C 169.269531 59.109375 169.773438 58.789062 170.304688 58.507812 C 170.835938 58.226562 171.386719 57.988281 171.953125 57.796875 C 172.523438 57.605469 173.105469 57.460938 173.699219 57.367188 C 174.289062 57.269531 174.886719 57.222656 175.488281 57.222656 C 176.210938 57.226562 176.929688 57.296875 177.640625 57.441406 C 178.351562 57.585938 179.042969 57.796875 179.710938 58.074219 C 180.378906 58.355469 181.015625 58.695312 181.617188 59.101562 C 182.21875 59.503906 182.773438 59.964844 183.285156 60.476562 C 183.796875 60.992188 184.25 61.550781 184.652344 62.15625 C 185.054688 62.757812 185.390625 63.394531 185.667969 64.066406 C 185.941406 64.738281 186.148438 65.425781 186.289062 66.140625 C 186.429688 66.851562 186.496094 67.570312 186.496094 68.292969 C 186.492188 69.019531 186.417969 69.734375 186.277344 70.445312 C 186.132812 71.15625 185.921875 71.847656 185.644531 72.515625 C 185.363281 73.183594 185.019531 73.820312 184.617188 74.421875 C 184.210938 75.019531 183.753906 75.578125 183.238281 76.089844 C 182.726562 76.601562 182.167969 77.054688 181.5625 77.457031 C 180.960938 77.859375 180.324219 78.195312 179.652344 78.472656 C 178.980469 78.746094 178.292969 78.953125 177.582031 79.09375 C 176.867188 79.234375 176.152344 79.300781 175.425781 79.300781 C 174.46875 79.292969 173.523438 79.167969 172.597656 78.914062 C 171.675781 78.664062 170.796875 78.300781 169.964844 77.820312 C 169.136719 77.339844 168.378906 76.761719 167.699219 76.085938 C 167.019531 75.410156 166.4375 74.660156 165.957031 73.832031 L 79.859375 73.832031 C 79.929688 77.21875 80.113281 85.804688 80.242188 97.871094 C 80.296875 104.992188 80.355469 112.140625 80.300781 117.597656 C 80.265625 120.324219 80.222656 122.621094 80.132812 124.34375 C 80.089844 125.207031 80.042969 125.910156 79.960938 126.5625 C 79.917969 126.890625 79.875 127.1875 79.761719 127.628906 C 79.707031 127.847656 79.644531 128.097656 79.449219 128.515625 C 79.253906 128.929688 79.058594 129.664062 77.671875 130.464844 C 75.976562 131.433594 76.199219 131.003906 75.976562 131.03125 C 75.75 131.0625 75.578125 131.078125 75.402344 131.089844 C 75.042969 131.117188 74.640625 131.132812 74.144531 131.148438 C 73.152344 131.183594 71.796875 131.214844 70.101562 131.238281 C 66.707031 131.289062 61.960938 131.316406 56.296875 131.332031 C 44.972656 131.363281 30.007812 131.34375 15.078125 131.296875 C 7.609375 131.277344 7.167969 131.261719 0.179688 131.234375 L 0.0507812 126.503906 L 0.996094 161.292969 C 8.988281 171.90625 18.101562 181.453125 28.332031 189.933594 C 41.234375 177.929688 52.398438 167.582031 56.546875 163.742188 C 55.765625 162.1875 55.378906 160.542969 55.375 158.808594 C 55.375 158.082031 55.449219 157.367188 55.589844 156.65625 C 55.734375 155.945312 55.945312 155.253906 56.226562 154.585938 C 56.503906 153.917969 56.847656 153.28125 57.25 152.679688 C 57.65625 152.082031 58.113281 151.523438 58.628906 151.011719 C 59.140625 150.5 59.699219 150.046875 60.304688 149.644531 C 60.90625 149.242188 61.546875 148.90625 62.214844 148.628906 C 62.886719 148.355469 63.574219 148.148438 64.289062 148.007812 C 65 147.867188 65.714844 147.800781 66.441406 147.800781 C 67.164062 147.804688 67.882812 147.875 68.59375 148.019531 C 69.304688 148.164062 69.992188 148.375 70.664062 148.652344 C 71.332031 148.933594 71.964844 149.273438 72.566406 149.679688 C 73.171875 150.082031 73.726562 150.542969 74.238281 151.054688 C 74.75 151.570312 75.203125 152.128906 75.605469 152.734375 C 76.003906 153.335938 76.34375 153.972656 76.621094 154.644531 C 76.894531 155.316406 77.101562 156.007812 77.242188 156.71875 C 77.382812 157.429688 77.449219 158.148438 77.449219 158.871094 C 77.445312 159.597656 77.375 160.3125 77.230469 161.023438 C 77.089844 161.734375 76.875 162.425781 76.597656 163.09375 C 76.320312 163.761719 75.976562 164.398438 75.570312 165 C 75.167969 165.601562 74.707031 166.15625 74.195312 166.667969 C 73.679688 167.179688 73.121094 167.636719 72.515625 168.035156 C 71.914062 168.4375 71.277344 168.773438 70.605469 169.050781 C 69.933594 169.324219 69.246094 169.53125 68.53125 169.671875 C 67.820312 169.8125 67.105469 169.878906 66.378906 169.878906 C 65.234375 169.871094 64.121094 169.6875 63.035156 169.335938 C 59.621094 172.496094 48.027344 183.242188 35.261719 195.121094 C 47.742188 204.34375 61.230469 211.722656 75.730469 217.253906 L 111.699219 170.121094 L 111.699219 125.417969 C 110.714844 124.988281 109.808594 124.425781 108.984375 123.734375 C 108.160156 123.039062 107.453125 122.242188 106.863281 121.339844 C 106.273438 120.441406 105.828125 119.472656 105.519531 118.441406 C 105.210938 117.410156 105.058594 116.355469 105.0625 115.277344 C 105.0625 114.554688 105.136719 113.835938 105.28125 113.125 C 105.421875 112.414062 105.632812 111.726562 105.914062 111.058594 C 106.191406 110.386719 106.535156 109.753906 106.9375 109.152344 C 107.34375 108.550781 107.800781 107.996094 108.316406 107.484375 C 108.832031 106.972656 109.386719 106.515625 109.992188 106.117188 C 110.59375 105.714844 111.234375 105.375 111.902344 105.101562 C 112.574219 104.824219 113.261719 104.617188 113.976562 104.476562 C 114.683594 104.339844 115.402344 104.269531 116.128906 104.273438 C 116.851562 104.273438 117.570312 104.347656 118.28125 104.492188 C 118.992188 104.632812 119.683594 104.84375 120.351562 105.125 C 121.019531 105.402344 121.652344 105.746094 122.253906 106.148438 C 122.855469 106.554688 123.410156 107.011719 123.921875 107.527344 C 124.433594 108.039062 124.890625 108.601562 125.292969 109.203125 C 125.691406 109.808594 126.03125 110.445312 126.304688 111.113281 C 126.582031 111.785156 126.789062 112.476562 126.925781 113.1875 C 127.066406 113.898438 127.136719 114.617188 127.132812 115.339844 C 127.128906 116.4375 126.960938 117.507812 126.636719 118.558594 C 126.3125 119.605469 125.839844 120.582031 125.226562 121.488281 C 124.609375 122.394531 123.875 123.195312 123.019531 123.882812 C 122.164062 124.570312 121.230469 125.117188 120.210938 125.527344 L 120.210938 171.554688 C 120.210938 172.511719 119.917969 173.371094 119.339844 174.132812 L 84.066406 220.363281 C 93 223.316406 102.117188 225.515625 111.414062 226.960938 C 124.566406 209.476562 138.683594 190.75 138.683594 190.75 C 139.085938 190.222656 139.582031 189.808594 140.179688 189.511719 C 140.777344 189.214844 141.40625 189.066406 142.074219 189.066406 L 169.535156 189.066406 L 169.535156 162.714844 C 168.574219 162.273438 167.695312 161.703125 166.894531 161.007812 C 166.097656 160.3125 165.414062 159.519531 164.84375 158.628906 C 164.273438 157.738281 163.839844 156.78125 163.542969 155.765625 C 163.246094 154.75 163.101562 153.710938 163.101562 152.652344 C 163.105469 151.929688 163.175781 151.210938 163.320312 150.5 C 163.464844 149.789062 163.675781 149.101562 163.953125 148.433594 C 164.234375 147.761719 164.574219 147.128906 164.980469 146.527344 C 165.382812 145.925781 165.84375 145.367188 166.359375 144.859375 C 166.871094 144.347656 167.429688 143.890625 168.03125 143.488281 C 168.636719 143.089844 169.273438 142.75 169.941406 142.476562 C 170.613281 142.199219 171.304688 141.992188 172.015625 141.851562 C 172.726562 141.714844 173.445312 141.644531 174.167969 141.648438 C 174.894531 141.648438 175.609375 141.722656 176.320312 141.863281 C 177.03125 142.007812 177.722656 142.21875 178.390625 142.5 C 179.058594 142.777344 179.695312 143.121094 180.296875 143.523438 C 180.898438 143.929688 181.457031 144.386719 181.964844 144.902344 C 182.476562 145.414062 182.933594 145.972656 183.335938 146.578125 C 183.734375 147.179688 184.074219 147.816406 184.347656 148.488281 C 184.625 149.160156 184.832031 149.851562 184.972656 150.5625 C 185.109375 151.273438 185.179688 151.992188 185.175781 152.714844 C 185.171875 153.832031 185 154.921875 184.664062 155.984375 C 184.324219 157.046875 183.839844 158.039062 183.203125 158.953125 C 182.566406 159.871094 181.808594 160.671875 180.925781 161.359375 C 180.046875 162.042969 179.085938 162.585938 178.042969 162.976562 L 178.042969 193.320312 C 178.042969 193.601562 178.015625 193.878906 177.960938 194.152344 C 177.90625 194.425781 177.824219 194.691406 177.71875 194.949219 C 177.613281 195.207031 177.480469 195.453125 177.324219 195.683594 C 177.171875 195.917969 176.996094 196.132812 176.796875 196.328125 C 176.601562 196.527344 176.386719 196.703125 176.152344 196.859375 C 175.921875 197.011719 175.675781 197.144531 175.417969 197.25 C 175.160156 197.359375 174.894531 197.4375 174.617188 197.492188 C 174.34375 197.546875 174.070312 197.574219 173.789062 197.574219 L 144.199219 197.574219 C 143.371094 198.671875 131.523438 214.402344 121.472656 227.757812 C 126.355469 228.320312 131.253906 228.671875 136.167969 228.808594 C 147.121094 228.746094 157.96875 227.636719 168.707031 225.480469 C 179.445312 223.324219 189.875 220.15625 200.003906 215.988281 L 200.003906 181.835938 C 198.972656 181.429688 198.023438 180.878906 197.15625 180.1875 C 196.289062 179.496094 195.542969 178.691406 194.917969 177.777344 C 194.292969 176.859375 193.820312 175.871094 193.492188 174.8125 C 193.167969 173.753906 193.003906 172.667969 193.003906 171.558594 C 193.003906 170.835938 193.078125 170.117188 193.222656 169.40625 C 193.363281 168.695312 193.574219 168.007812 193.855469 167.339844 C 194.132812 166.671875 194.476562 166.035156 194.882812 165.433594 C 195.285156 164.832031 195.746094 164.277344 196.257812 163.765625 C 196.769531 163.253906 197.328125 162.796875 197.933594 162.398438 C 198.535156 161.996094 199.175781 161.65625 199.84375 161.382812 C 200.515625 161.105469 201.207031 160.898438 201.917969 160.761719 C 202.628906 160.621094 203.34375 160.550781 204.070312 160.554688 C 204.792969 160.554688 205.511719 160.628906 206.222656 160.773438 C 206.933594 160.914062 207.621094 161.125 208.289062 161.40625 C 208.960938 161.683594 209.59375 162.027344 210.195312 162.429688 C 210.796875 162.835938 211.355469 163.296875 211.863281 163.808594 C 212.375 164.324219 212.832031 164.882812 213.234375 165.484375 C 213.632812 166.089844 213.972656 166.726562 214.246094 167.394531 C 214.523438 168.066406 214.730469 168.757812 214.871094 169.46875 C 215.007812 170.179688 215.078125 170.898438 215.078125 171.621094 C 215.074219 172.6875 214.917969 173.730469 214.613281 174.75 C 214.308594 175.769531 213.863281 176.726562 213.28125 177.617188 C 212.703125 178.511719 212.003906 179.300781 211.195312 179.992188 C 210.382812 180.683594 209.488281 181.242188 208.515625 181.675781 L 208.515625 212.523438 C 219.175781 207.398438 229.1875 201.226562 238.558594 194.011719 L 238.558594 162.601562 C 237.488281 162.21875 236.503906 161.679688 235.601562 160.992188 C 234.695312 160.300781 233.917969 159.492188 233.265625 158.5625 C 232.609375 157.632812 232.113281 156.625 231.769531 155.542969 C 231.429688 154.460938 231.257812 153.347656 231.257812 152.210938 C 231.257812 151.488281 231.332031 150.769531 231.476562 150.058594 C 231.617188 149.347656 231.832031 148.660156 232.109375 147.992188 C 232.390625 147.324219 232.730469 146.6875 233.136719 146.085938 C 233.539062 145.484375 234 144.929688 234.511719 144.417969 C 235.027344 143.90625 235.585938 143.449219 236.1875 143.050781 C 236.792969 142.648438 237.429688 142.308594 238.101562 142.035156 C 238.769531 141.757812 239.460938 141.550781 240.171875 141.414062 C 240.882812 141.273438 241.601562 141.203125 242.324219 141.207031 C 243.050781 141.207031 243.769531 141.28125 244.480469 141.425781 C 245.191406 141.566406 245.878906 141.777344 246.550781 142.058594 C 247.21875 142.335938 247.851562 142.679688 248.457031 143.082031 C 249.058594 143.488281 249.613281 143.945312 250.125 144.460938 C 250.636719 144.976562 251.089844 145.535156 251.492188 146.136719 C 251.890625 146.742188 252.230469 147.378906 252.507812 148.050781 C 252.78125 148.71875 252.988281 149.410156 253.128906 150.121094 C 253.265625 150.832031 253.335938 151.550781 253.335938 152.277344 C 253.328125 153.3125 253.183594 154.328125 252.890625 155.324219 C 252.601562 156.316406 252.179688 157.25 251.625 158.128906 C 251.070312 159.003906 250.410156 159.785156 249.632812 160.472656 C 248.859375 161.164062 248.007812 161.730469 247.070312 162.179688 L 247.070312 187.640625 C 255.640625 180.113281 263.371094 171.804688 270.269531 162.722656 L 270.269531 108.457031 C 269.328125 108.007812 268.464844 107.4375 267.679688 106.746094 C 266.898438 106.054688 266.230469 105.269531 265.671875 104.386719 C 265.113281 103.503906 264.6875 102.5625 264.394531 101.558594 C 264.101562 100.558594 263.957031 99.535156 263.957031 98.488281 C 263.957031 97.765625 264.027344 97.046875 264.167969 96.335938 C 264.308594 95.625 264.519531 94.9375 264.796875 94.265625 C 265.074219 93.597656 265.414062 92.960938 265.816406 92.359375 C 266.21875 91.757812 266.675781 91.199219 267.191406 90.6875 C 267.703125 90.175781 268.257812 89.714844 268.859375 89.3125 C 269.460938 88.910156 270.097656 88.570312 270.769531 88.292969 C 271.4375 88.015625 272.128906 87.808594 272.839844 87.664062 C 273.550781 87.523438 274.265625 87.453125 274.992188 87.453125 C 275.714844 87.453125 276.433594 87.523438 277.144531 87.664062 C 277.855469 87.808594 278.542969 88.015625 279.214844 88.292969 C 279.882812 88.570312 280.519531 88.910156 281.121094 89.3125 C 281.726562 89.714844 282.285156 90.171875 282.796875 90.683594 C 283.308594 91.199219 283.765625 91.753906 284.167969 92.359375 C 284.570312 92.960938 284.910156 93.597656 285.191406 94.265625 C 285.46875 94.933594 285.675781 95.625 285.816406 96.335938 C 285.960938 97.046875 286.03125 97.765625 286.03125 98.488281 C 286.027344 99.617188 285.855469 100.722656 285.515625 101.796875 C 285.171875 102.875 284.679688 103.875 284.03125 104.800781 C 283.382812 105.722656 282.609375 106.53125 281.714844 107.21875 C 280.816406 107.90625 279.839844 108.441406 278.78125 108.828125 L 278.78125 151.355469 C 283.199219 144.554688 287.109375 137.476562 290.519531 130.113281 C 293.925781 122.753906 296.792969 115.1875 299.117188 107.417969 C 301.441406 99.648438 303.203125 91.753906 304.398438 83.730469 C 305.59375 75.707031 306.210938 67.640625 306.253906 59.53125 L 263.972656 59.53125 C 263.570312 60.566406 263.023438 61.515625 262.332031 62.386719 C 261.640625 63.253906 260.832031 64 259.917969 64.628906 C 259 65.253906 258.011719 65.730469 256.949219 66.058594 C 255.890625 66.382812 254.804688 66.546875 253.691406 66.546875 C 252.96875 66.546875 252.25 66.472656 251.539062 66.328125 C 250.828125 66.183594 250.140625 65.972656 249.46875 65.695312 C 248.800781 65.414062 248.164062 65.074219 247.5625 64.667969 C 246.964844 64.265625 246.40625 63.804688 245.894531 63.292969 C 245.386719 62.777344 244.929688 62.21875 244.527344 61.613281 C 244.128906 61.011719 243.789062 60.375 243.515625 59.703125 C 243.238281 59.03125 243.03125 58.34375 242.890625 57.632812 C 242.753906 56.917969 242.683594 56.203125 242.6875 55.476562 C 242.6875 54.753906 242.761719 54.035156 242.90625 53.324219 C 243.046875 52.613281 243.257812 51.925781 243.539062 51.257812 C 243.816406 50.585938 244.160156 49.953125 244.5625 49.351562 C 244.96875 48.75 245.429688 48.195312 245.941406 47.683594 C 246.457031 47.171875 247.011719 46.714844 247.617188 46.316406 C 248.222656 45.914062 248.859375 45.574219 249.527344 45.300781 C 250.199219 45.023438 250.886719 44.816406 251.601562 44.679688 C 252.3125 44.539062 253.03125 44.46875 253.753906 44.472656 C 254.820312 44.476562 255.859375 44.628906 256.878906 44.933594 C 257.898438 45.238281 258.855469 45.683594 259.746094 46.261719 C 260.636719 46.84375 261.429688 47.539062 262.117188 48.347656 C 262.808594 49.160156 263.371094 50.050781 263.804688 51.023438 L 306.128906 51.023438 C 306.128906 50.804688 306.128906 50.589844 306.128906 50.371094 C 280.863281 35.601562 253.597656 25.582031 225.886719 20.417969 L 225.621094 115.96875 C 225.621094 116.246094 225.59375 116.523438 225.539062 116.796875 C 225.480469 117.074219 225.402344 117.339844 225.292969 117.597656 C 225.183594 117.855469 225.054688 118.101562 224.898438 118.332031 C 224.742188 118.566406 224.5625 118.78125 224.363281 118.976562 C 224.167969 119.171875 223.949219 119.351562 223.71875 119.503906 C 223.484375 119.660156 223.238281 119.789062 222.980469 119.894531 C 222.722656 120 222.457031 120.082031 222.183594 120.136719 C 221.90625 120.1875 221.628906 120.214844 221.351562 120.214844 L 166.957031 120.058594 C 166.511719 121 165.9375 121.863281 165.246094 122.644531 C 164.550781 123.421875 163.761719 124.09375 162.878906 124.648438 C 161.996094 125.207031 161.050781 125.628906 160.046875 125.917969 C 159.042969 126.207031 158.019531 126.347656 156.972656 126.347656 C 156.25 126.34375 155.53125 126.273438 154.824219 126.128906 C 154.113281 125.984375 153.421875 125.773438 152.753906 125.496094 C 152.085938 125.214844 151.449219 124.875 150.847656 124.46875 C 150.246094 124.066406 149.691406 123.605469 149.179688 123.09375 C 148.667969 122.578125 148.210938 122.019531 147.8125 121.414062 C 147.410156 120.8125 147.074219 120.175781 146.796875 119.503906 C 146.523438 118.835938 146.316406 118.144531 146.175781 117.433594 C 146.035156 116.722656 145.96875 116.003906 145.96875 115.277344 C 145.972656 114.554688 146.042969 113.835938 146.1875 113.125 C 146.328125 112.414062 146.542969 111.726562 146.820312 111.058594 C 147.101562 110.386719 147.441406 109.753906 147.84375 109.152344 C 148.25 108.550781 148.707031 107.996094 149.222656 107.484375 C 149.734375 106.972656 150.292969 106.515625 150.898438 106.117188 C 151.5 105.714844 152.140625 105.375 152.808594 105.101562 C 153.480469 104.824219 154.171875 104.617188 154.878906 104.476562 C 155.59375 104.339844 156.308594 104.269531 157.035156 104.273438 C 158.164062 104.273438 159.269531 104.449219 160.347656 104.792969 C 161.425781 105.132812 162.429688 105.628906 163.351562 106.28125 C 164.277344 106.933594 165.085938 107.707031 165.773438 108.605469 C 166.460938 109.503906 166.996094 110.484375 167.382812 111.550781 L 217.121094 111.695312 L 217.382812 18.929688 C 206.761719 17.335938 196.101562 16.386719 185.488281 16.253906 Z M 225.875 20.417969 L 225.875 20.34375 C 223.042969 19.816406 220.210938 19.355469 217.371094 18.929688 C 220.210938 19.355469 223.042969 19.890625 225.875 20.417969 Z M 140.683594 20.292969 C 137.867188 20.839844 135.0625 21.445312 132.273438 22.105469 C 135.0625 21.445312 137.867188 20.839844 140.683594 20.292969 Z M 140.683594 20.292969 " fill-opacity="1" fill-rule="nonzero"/></g></svg>