<?xml version="1.0" standalone="no"?>
<svg xmlns="http://www.w3.org/2000/svg" width="1024" height="1331" viewBox="0 0 1000 1300"><defs><clipPath id="clip-path-dot-color"><path d="M 254.19 425.19v 14.62h 8.5a 7.31 7.31, 0, 0, 0, 0 -14.62" transform="rotate(180,262.09499999999997,432.5)"/><path d="M 254.19 493.19v 14.62h 8.5a 7.31 7.31, 0, 0, 0, 0 -14.62" transform="rotate(180,262.09499999999997,500.5)"/><circle cx="261.5" cy="517.5" r="7.31" transform="rotate(0,260.31,516.31)"/><path d="M 254.19 527.19v 14.62h 8.5a 7.31 7.31, 0, 0, 0, 0 -14.62" transform="rotate(180,262.09499999999997,534.5)"/><path d="M 254.19 578.19v 14.62h 8.5a 7.31 7.31, 0, 0, 0, 0 -14.62" transform="rotate(180,262.09499999999997,585.5)"/><circle cx="261.5" cy="602.5" r="7.31" transform="rotate(0,260.31,601.31)"/><path d="M 254.19 612.19v 14.62h 8.5a 7.31 7.31, 0, 0, 0, 0 -14.62" transform="rotate(180,262.09499999999997,619.5)"/><path d="M 270 425.19v 14.62h 8.5a 7.31 7.31, 0, 0, 0, 0 -14.62" transform="rotate(0,277.905,432.5)"/><circle cx="278.5" cy="483.5" r="7.31" transform="rotate(0,277.31,482.31)"/><rect x="270" y="493.19" width="17" height="14.62" transform="rotate(0,278.5,499.31)"/><rect x="270" y="527.19" width="17" height="14.62" transform="rotate(0,278.5,533.31)"/><path d="M 271.19 544.19v 14.62h 8.5a 7.31 7.31, 0, 0, 0, 0 -14.62" transform="rotate(180,279.09499999999997,551.5)"/><circle cx="278.5" cy="568.5" r="7.31" transform="rotate(0,277.31,567.31)"/><path d="M 270 578.19v 14.62h 8.5a 7.31 7.31, 0, 0, 0, 0 -14.62" transform="rotate(0,277.905,585.5)"/><rect x="270" y="612.19" width="17" height="14.62" transform="rotate(0,278.5,618.31)"/><circle cx="295.5" cy="466.5" r="7.31" transform="rotate(0,294.31,465.31)"/><path d="M 287 493.19v 14.62h 8.5a 7.31 7.31, 0, 0, 0, 0 -14.62" transform="rotate(0,294.905,500.5)"/><circle cx="295.5" cy="517.5" r="7.31" transform="rotate(0,294.31,516.31)"/><path d="M 287 527.19v 14.62h 8.5a 7.31 7.31, 0, 0, 0, 0 -14.62" transform="rotate(0,294.905,534.5)"/><rect x="287" y="544.19" width="17" height="14.62" transform="rotate(0,295.5,550.31)"/><circle cx="295.5" cy="602.5" r="7.31" transform="rotate(0,294.31,601.31)"/><rect x="287" y="612.19" width="17" height="14.62" transform="rotate(0,295.5,618.31)"/><path d="M 288.19 629.19v 14.62h 8.5a 7.31 7.31, 0, 0, 0, 0 -14.62" transform="rotate(180,296.09499999999997,636.5)"/><circle cx="312.5" cy="449.5" r="7.31" transform="rotate(0,311.31,448.31)"/><path d="M 305.19 476.19v 14.62h 8.5a 7.31 7.31, 0, 0, 0, 0 -14.62" transform="rotate(180,313.09499999999997,483.5)"/><rect x="304" y="544.19" width="17" height="14.62" transform="rotate(0,312.5,550.31)"/><circle cx="312.5" cy="568.5" r="7.31" transform="rotate(0,311.31,567.31)"/><circle cx="312.5" cy="585.5" r="7.31" transform="rotate(0,311.31,584.31)"/><rect x="304" y="612.19" width="17" height="14.62" transform="rotate(0,312.5,618.31)"/><rect x="304" y="629.19" width="17" height="14.62" transform="rotate(0,312.5,635.31)"/><path d="M 322.19 459.19v 14.62h 8.5a 7.31 7.31, 0, 0, 0, 0 -14.62" transform="rotate(180,330.09499999999997,466.5)"/><rect x="321" y="476.19" width="17" height="14.62" transform="rotate(0,329.5,482.31)"/><path d="M 321 544.19v 14.62h 8.5a 7.31 7.31, 0, 0, 0, 0 -14.62" transform="rotate(0,328.905,551.5)"/><path d="M 321 612.19v 14.62h 8.5a 7.31 7.31, 0, 0, 0, 0 -14.62" transform="rotate(0,328.905,619.5)"/><path d="M 321 629.19v 14.62h 8.5a 7.31 7.31, 0, 0, 0, 0 -14.62" transform="rotate(0,328.905,636.5)"/><rect x="338" y="459.19" width="17" height="14.62" transform="rotate(0,346.5,465.31)"/><path d="M 338 476.19v 14.62h 8.5a 7.31 7.31, 0, 0, 0, 0 -14.62" transform="rotate(0,345.905,483.5)"/><path d="M 339.19 493.19v 14.62h 8.5a 7.31 7.31, 0, 0, 0, 0 -14.62" transform="rotate(180,347.09499999999997,500.5)"/><path d="M 339.19 527.19v 14.62h 8.5a 7.31 7.31, 0, 0, 0, 0 -14.62" transform="rotate(180,347.09499999999997,534.5)"/><path d="M 339.19 595.19v 14.62h 8.5a 7.31 7.31, 0, 0, 0, 0 -14.62" transform="rotate(180,347.09499999999997,602.5)"/><circle cx="363.5" cy="432.5" r="7.31" transform="rotate(0,362.31,431.31)"/><path d="M 355 459.19v 14.62h 8.5a 7.31 7.31, 0, 0, 0, 0 -14.62" transform="rotate(0,362.905,466.5)"/><rect x="355" y="493.19" width="17" height="14.62" transform="rotate(0,363.5,499.31)"/><path d="M 355 527.19v 14.62h 8.5a 7.31 7.31, 0, 0, 0, 0 -14.62" transform="rotate(0,362.905,534.5)"/><path d="M 356.19 561.19v 14.62h 8.5a 7.31 7.31, 0, 0, 0, 0 -14.62" transform="rotate(180,364.09499999999997,568.5)"/><path d="M 355 595.19v 14.62h 8.5a 7.31 7.31, 0, 0, 0, 0 -14.62" transform="rotate(0,362.905,602.5)"/><circle cx="363.5" cy="636.5" r="7.31" transform="rotate(0,362.31,635.31)"/><path d="M 372 493.19v 14.62h 8.5a 7.31 7.31, 0, 0, 0, 0 -14.62" transform="rotate(0,379.905,500.5)"/><circle cx="380.5" cy="517.5" r="7.31" transform="rotate(0,379.31,516.31)"/><circle cx="380.5" cy="551.5" r="7.31" transform="rotate(0,379.31,550.31)"/><rect x="372" y="561.19" width="17" height="14.62" transform="rotate(0,380.5,567.31)"/><circle cx="380.5" cy="619.5" r="7.31" transform="rotate(0,379.31,618.31)"/><path d="M 390.19 306.19v 14.62h 8.5a 7.31 7.31, 0, 0, 0, 0 -14.62" transform="rotate(180,398.09499999999997,313.5)"/><circle cx="397.5" cy="398.5" r="7.31" transform="rotate(0,396.31,397.31)"/><path d="M 390.19 408.19v 14.62h 8.5a 7.31 7.31, 0, 0, 0, 0 -14.62" transform="rotate(180,398.09499999999997,415.5)"/><path d="M 390.19 425.19v 14.62h 8.5a 7.31 7.31, 0, 0, 0, 0 -14.62" transform="rotate(180,398.09499999999997,432.5)"/><path d="M 390.19 442.19v 14.62h 8.5a 7.31 7.31, 0, 0, 0, 0 -14.62" transform="rotate(180,398.09499999999997,449.5)"/><path d="M 390.19 476.19v 14.62h 8.5a 7.31 7.31, 0, 0, 0, 0 -14.62" transform="rotate(180,398.09499999999997,483.5)"/><circle cx="397.5" cy="534.5" r="7.31" transform="rotate(0,396.31,533.31)"/><path d="M 389 561.19v 14.62h 8.5a 7.31 7.31, 0, 0, 0, 0 -14.62" transform="rotate(0,396.905,568.5)"/><circle cx="397.5" cy="602.5" r="7.31" transform="rotate(0,396.31,601.31)"/><circle cx="397.5" cy="653.5" r="7.31" transform="rotate(0,396.31,652.31)"/><path d="M 390.19 748.19v 14.62h 8.5a 7.31 7.31, 0, 0, 0, 0 -14.62" transform="rotate(180,398.09499999999997,755.5)"/><circle cx="397.5" cy="772.5" r="7.31" transform="rotate(0,396.31,771.31)"/><path d="M 406 306.19v 14.62h 8.5a 7.31 7.31, 0, 0, 0, 0 -14.62" transform="rotate(0,413.905,313.5)"/><path d="M 407.19 323.19v 14.62h 8.5a 7.31 7.31, 0, 0, 0, 0 -14.62" transform="rotate(180,415.09499999999997,330.5)"/><rect x="406" y="408.19" width="17" height="14.62" transform="rotate(0,414.5,414.31)"/><rect x="406" y="425.19" width="17" height="14.62" transform="rotate(0,414.5,431.31)"/><path d="M 406 442.19v 14.62h 8.5a 7.31 7.31, 0, 0, 0, 0 -14.62" transform="rotate(0,413.905,449.5)"/><path d="M 407.19 459.19v 14.62h 8.5a 7.31 7.31, 0, 0, 0, 0 -14.62" transform="rotate(180,415.09499999999997,466.5)"/><path d="M 406 476.19v 14.62h 8.5a 7.31 7.31, 0, 0, 0, 0 -14.62" transform="rotate(0,413.905,483.5)"/><circle cx="414.5" cy="500.5" r="7.31" transform="rotate(0,413.31,499.31)"/><path d="M 407.19 510.19v 14.62h 8.5a 7.31 7.31, 0, 0, 0, 0 -14.62" transform="rotate(180,415.09499999999997,517.5)"/><path d="M 407.19 544.19v 14.62h 8.5a 7.31 7.31, 0, 0, 0, 0 -14.62" transform="rotate(180,415.09499999999997,551.5)"/><circle cx="414.5" cy="585.5" r="7.31" transform="rotate(0,413.31,584.31)"/><path d="M 407.19 629.19v 14.62h 8.5a 7.31 7.31, 0, 0, 0, 0 -14.62" transform="rotate(180,415.09499999999997,636.5)"/><path d="M 407.19 663.19v 14.62h 8.5a 7.31 7.31, 0, 0, 0, 0 -14.62" transform="rotate(180,415.09499999999997,670.5)"/><path d="M 407.19 680.19v 14.62h 8.5a 7.31 7.31, 0, 0, 0, 0 -14.62" transform="rotate(180,415.09499999999997,687.5)"/><circle cx="414.5" cy="704.5" r="7.31" transform="rotate(0,413.31,703.31)"/><path d="M 407.19 731.19v 14.62h 8.5a 7.31 7.31, 0, 0, 0, 0 -14.62" transform="rotate(180,415.09499999999997,738.5)"/><path d="M 406 748.19v 14.62h 8.5a 7.31 7.31, 0, 0, 0, 0 -14.62" transform="rotate(0,413.905,755.5)"/><path d="M 423 323.19v 14.62h 8.5a 7.31 7.31, 0, 0, 0, 0 -14.62" transform="rotate(0,430.905,330.5)"/><path d="M 424.19 357.19v 14.62h 8.5a 7.31 7.31, 0, 0, 0, 0 -14.62" transform="rotate(180,432.09499999999997,364.5)"/><path d="M 424.19 374.19v 14.62h 8.5a 7.31 7.31, 0, 0, 0, 0 -14.62" transform="rotate(180,432.09499999999997,381.5)"/><circle cx="431.5" cy="398.5" r="7.31" transform="rotate(0,430.31,397.31)"/><rect x="423" y="408.19" width="17" height="14.62" transform="rotate(0,431.5,414.31)"/><path d="M 423 425.19v 14.62h 8.5a 7.31 7.31, 0, 0, 0, 0 -14.62" transform="rotate(0,430.905,432.5)"/><path d="M 423 459.19v 14.62h 8.5a 7.31 7.31, 0, 0, 0, 0 -14.62" transform="rotate(0,430.905,466.5)"/><rect x="423" y="510.19" width="17" height="14.62" transform="rotate(0,431.5,516.31)"/><circle cx="431.5" cy="534.5" r="7.31" transform="rotate(0,430.31,533.31)"/><rect x="423" y="544.19" width="17" height="14.62" transform="rotate(0,431.5,550.31)"/><path d="M 424.19 561.19v 14.62h 8.5a 7.31 7.31, 0, 0, 0, 0 -14.62" transform="rotate(180,432.09499999999997,568.5)"/><circle cx="431.5" cy="602.5" r="7.31" transform="rotate(0,430.31,601.31)"/><rect x="423" y="629.19" width="17" height="14.62" transform="rotate(0,431.5,635.31)"/><circle cx="431.5" cy="653.5" r="7.31" transform="rotate(0,430.31,652.31)"/><rect x="423" y="663.19" width="17" height="14.62" transform="rotate(0,431.5,669.31)"/><path d="M 423 680.19v 14.62h 8.5a 7.31 7.31, 0, 0, 0, 0 -14.62" transform="rotate(0,430.905,687.5)"/><path d="M 423 731.19v 14.62h 8.5a 7.31 7.31, 0, 0, 0, 0 -14.62" transform="rotate(0,430.905,738.5)"/><path d="M 441.19 306.19v 14.62h 8.5a 7.31 7.31, 0, 0, 0, 0 -14.62" transform="rotate(180,449.09499999999997,313.5)"/><path d="M 441.19 340.19v 14.62h 8.5a 7.31 7.31, 0, 0, 0, 0 -14.62" transform="rotate(180,449.09499999999997,347.5)"/><path d="M 440 357.19v 14.62h 8.5a 7.31 7.31, 0, 0, 0, 0 -14.62" transform="rotate(0,447.905,364.5)"/><rect x="440" y="374.19" width="17" height="14.62" transform="rotate(0,448.5,380.31)"/><rect x="440" y="408.19" width="17" height="14.62" transform="rotate(0,448.5,414.31)"/><rect x="440" y="510.19" width="17" height="14.62" transform="rotate(0,448.5,516.31)"/><path d="M 440 544.19v 14.62h 8.5a 7.31 7.31, 0, 0, 0, 0 -14.62" transform="rotate(0,447.905,551.5)"/><path d="M 440 561.19v 14.62h 8.5a 7.31 7.31, 0, 0, 0, 0 -14.62" transform="rotate(0,447.905,568.5)"/><path d="M 441.19 612.19v 14.62h 8.5a 7.31 7.31, 0, 0, 0, 0 -14.62" transform="rotate(180,449.09499999999997,619.5)"/><path d="M 440 629.19v 14.62h 8.5a 7.31 7.31, 0, 0, 0, 0 -14.62" transform="rotate(0,447.905,636.5)"/><rect x="440" y="663.19" width="17" height="14.62" transform="rotate(0,448.5,669.31)"/><circle cx="448.5" cy="704.5" r="7.31" transform="rotate(0,447.31,703.31)"/><path d="M 441.19 714.19v 14.62h 8.5a 7.31 7.31, 0, 0, 0, 0 -14.62" transform="rotate(180,449.09499999999997,721.5)"/><rect x="457" y="306.19" width="17" height="14.62" transform="rotate(0,465.5,312.31)"/><circle cx="465.5" cy="330.5" r="7.31" transform="rotate(0,464.31,329.31)"/><path d="M 457 340.19v 14.62h 8.5a 7.31 7.31, 0, 0, 0, 0 -14.62" transform="rotate(0,464.905,347.5)"/><rect x="457" y="374.19" width="17" height="14.62" transform="rotate(0,465.5,380.31)"/><circle cx="465.5" cy="398.5" r="7.31" transform="rotate(0,464.31,397.31)"/><path d="M 457 408.19v 14.62h 8.5a 7.31 7.31, 0, 0, 0, 0 -14.62" transform="rotate(0,464.905,415.5)"/><circle cx="465.5" cy="432.5" r="7.31" transform="rotate(0,464.31,431.31)"/><circle cx="465.5" cy="449.5" r="7.31" transform="rotate(0,464.31,448.31)"/><circle cx="465.5" cy="466.5" r="7.31" transform="rotate(0,464.31,465.31)"/><rect x="457" y="510.19" width="17" height="14.62" transform="rotate(0,465.5,516.31)"/><path d="M 458.19 595.19v 14.62h 8.5a 7.31 7.31, 0, 0, 0, 0 -14.62" transform="rotate(180,466.09499999999997,602.5)"/><rect x="457" y="612.19" width="17" height="14.62" transform="rotate(0,465.5,618.31)"/><circle cx="465.5" cy="653.5" r="7.31" transform="rotate(0,464.31,652.31)"/><rect x="457" y="663.19" width="17" height="14.62" transform="rotate(0,465.5,669.31)"/><rect x="457" y="714.19" width="17" height="14.62" transform="rotate(0,465.5,720.31)"/><circle cx="465.5" cy="738.5" r="7.31" transform="rotate(0,464.31,737.31)"/><path d="M 458.19 748.19v 14.62h 8.5a 7.31 7.31, 0, 0, 0, 0 -14.62" transform="rotate(180,466.09499999999997,755.5)"/><circle cx="482.5" cy="296.5" r="7.31" transform="rotate(0,481.31,295.31)"/><path d="M 474 306.19v 14.62h 8.5a 7.31 7.31, 0, 0, 0, 0 -14.62" transform="rotate(0,481.905,313.5)"/><circle cx="482.5" cy="364.5" r="7.31" transform="rotate(0,481.31,363.31)"/><rect x="474" y="374.19" width="17" height="14.62" transform="rotate(0,482.5,380.31)"/><circle cx="482.5" cy="483.5" r="7.31" transform="rotate(0,481.31,482.31)"/><rect x="474" y="510.19" width="17" height="14.62" transform="rotate(0,482.5,516.31)"/><circle cx="482.5" cy="534.5" r="7.31" transform="rotate(0,481.31,533.31)"/><circle cx="482.5" cy="551.5" r="7.31" transform="rotate(0,481.31,550.31)"/><path d="M 475.19 578.19v 14.62h 8.5a 7.31 7.31, 0, 0, 0, 0 -14.62" transform="rotate(180,483.09499999999997,585.5)"/><path d="M 474 595.19v 14.62h 8.5a 7.31 7.31, 0, 0, 0, 0 -14.62" transform="rotate(0,481.905,602.5)"/><path d="M 474 612.19v 14.62h 8.5a 7.31 7.31, 0, 0, 0, 0 -14.62" transform="rotate(0,481.905,619.5)"/><path d="M 475.19 629.19v 14.62h 8.5a 7.31 7.31, 0, 0, 0, 0 -14.62" transform="rotate(180,483.09499999999997,636.5)"/><path d="M 474 663.19v 14.62h 8.5a 7.31 7.31, 0, 0, 0, 0 -14.62" transform="rotate(0,481.905,670.5)"/><circle cx="482.5" cy="704.5" r="7.31" transform="rotate(0,481.31,703.31)"/><path d="M 474 714.19v 14.62h 8.5a 7.31 7.31, 0, 0, 0, 0 -14.62" transform="rotate(0,481.905,721.5)"/><rect x="474" y="748.19" width="17" height="14.62" transform="rotate(0,482.5,754.31)"/><circle cx="482.5" cy="772.5" r="7.31" transform="rotate(0,481.31,771.31)"/><path d="M 492.19 340.19v 14.62h 8.5a 7.31 7.31, 0, 0, 0, 0 -14.62" transform="rotate(180,500.09499999999997,347.5)"/><path d="M 491 374.19v 14.62h 8.5a 7.31 7.31, 0, 0, 0, 0 -14.62" transform="rotate(0,498.905,381.5)"/><circle cx="499.5" cy="398.5" r="7.31" transform="rotate(0,498.31,397.31)"/><path d="M 492.19 408.19v 14.62h 8.5a 7.31 7.31, 0, 0, 0, 0 -14.62" transform="rotate(180,500.09499999999997,415.5)"/><circle cx="499.5" cy="500.5" r="7.31" transform="rotate(0,498.31,499.31)"/><path d="M 491 510.19v 14.62h 8.5a 7.31 7.31, 0, 0, 0, 0 -14.62" transform="rotate(0,498.905,517.5)"/><rect x="491" y="578.19" width="17" height="14.62" transform="rotate(0,499.5,584.31)"/><rect x="491" y="629.19" width="17" height="14.62" transform="rotate(0,499.5,635.31)"/><circle cx="499.5" cy="687.5" r="7.31" transform="rotate(0,498.31,686.31)"/><rect x="491" y="748.19" width="17" height="14.62" transform="rotate(0,499.5,754.31)"/><circle cx="516.5" cy="330.5" r="7.31" transform="rotate(0,515.31,329.31)"/><path d="M 508 340.19v 14.62h 8.5a 7.31 7.31, 0, 0, 0, 0 -14.62" transform="rotate(0,515.905,347.5)"/><path d="M 508 408.19v 14.62h 8.5a 7.31 7.31, 0, 0, 0, 0 -14.62" transform="rotate(0,515.905,415.5)"/><circle cx="516.5" cy="432.5" r="7.31" transform="rotate(0,515.31,431.31)"/><path d="M 509.19 442.19v 14.62h 8.5a 7.31 7.31, 0, 0, 0, 0 -14.62" transform="rotate(180,517.095,449.5)"/><circle cx="516.5" cy="534.5" r="7.31" transform="rotate(0,515.31,533.31)"/><path d="M 509.19 544.19v 14.62h 8.5a 7.31 7.31, 0, 0, 0, 0 -14.62" transform="rotate(180,517.095,551.5)"/><path d="M 508 578.19v 14.62h 8.5a 7.31 7.31, 0, 0, 0, 0 -14.62" transform="rotate(0,515.905,585.5)"/><circle cx="516.5" cy="602.5" r="7.31" transform="rotate(0,515.31,601.31)"/><path d="M 508 629.19v 14.62h 8.5a 7.31 7.31, 0, 0, 0, 0 -14.62" transform="rotate(0,515.905,636.5)"/><circle cx="516.5" cy="670.5" r="7.31" transform="rotate(0,515.31,669.31)"/><circle cx="516.5" cy="704.5" r="7.31" transform="rotate(0,515.31,703.31)"/><path d="M 509.19 714.19v 14.62h 8.5a 7.31 7.31, 0, 0, 0, 0 -14.62" transform="rotate(180,517.095,721.5)"/><path d="M 509.19 731.19v 14.62h 8.5a 7.31 7.31, 0, 0, 0, 0 -14.62" transform="rotate(180,517.095,738.5)"/><rect x="508" y="748.19" width="17" height="14.62" transform="rotate(0,516.5,754.31)"/><path d="M 526.19 289.19v 14.62h 8.5a 7.31 7.31, 0, 0, 0, 0 -14.62" transform="rotate(180,534.095,296.5)"/><circle cx="533.5" cy="313.5" r="7.31" transform="rotate(0,532.31,312.31)"/><circle cx="533.5" cy="364.5" r="7.31" transform="rotate(0,532.31,363.31)"/><circle cx="533.5" cy="381.5" r="7.31" transform="rotate(0,532.31,380.31)"/><circle cx="533.5" cy="398.5" r="7.31" transform="rotate(0,532.31,397.31)"/><path d="M 525 442.19v 14.62h 8.5a 7.31 7.31, 0, 0, 0, 0 -14.62" transform="rotate(0,532.905,449.5)"/><circle cx="533.5" cy="483.5" r="7.31" transform="rotate(0,532.31,482.31)"/><path d="M 526.19 510.19v 14.62h 8.5a 7.31 7.31, 0, 0, 0, 0 -14.62" transform="rotate(180,534.095,517.5)"/><path d="M 525 544.19v 14.62h 8.5a 7.31 7.31, 0, 0, 0, 0 -14.62" transform="rotate(0,532.905,551.5)"/><circle cx="533.5" cy="568.5" r="7.31" transform="rotate(0,532.31,567.31)"/><rect x="525" y="714.19" width="17" height="14.62" transform="rotate(0,533.5,720.31)"/><rect x="525" y="731.19" width="17" height="14.62" transform="rotate(0,533.5,737.31)"/><path d="M 525 748.19v 14.62h 8.5a 7.31 7.31, 0, 0, 0, 0 -14.62" transform="rotate(0,532.905,755.5)"/><path d="M 526.19 765.19v 14.62h 8.5a 7.31 7.31, 0, 0, 0, 0 -14.62" transform="rotate(180,534.095,772.5)"/><rect x="542" y="289.19" width="17" height="14.62" transform="rotate(0,550.5,295.31)"/><path d="M 543.19 323.19v 14.62h 8.5a 7.31 7.31, 0, 0, 0, 0 -14.62" transform="rotate(180,551.095,330.5)"/><circle cx="550.5" cy="347.5" r="7.31" transform="rotate(0,549.31,346.31)"/><circle cx="550.5" cy="466.5" r="7.31" transform="rotate(0,549.31,465.31)"/><path d="M 542 510.19v 14.62h 8.5a 7.31 7.31, 0, 0, 0, 0 -14.62" transform="rotate(0,549.905,517.5)"/><circle cx="550.5" cy="534.5" r="7.31" transform="rotate(0,549.31,533.31)"/><circle cx="550.5" cy="585.5" r="7.31" transform="rotate(0,549.31,584.31)"/><circle cx="550.5" cy="602.5" r="7.31" transform="rotate(0,549.31,601.31)"/><path d="M 543.19 612.19v 14.62h 8.5a 7.31 7.31, 0, 0, 0, 0 -14.62" transform="rotate(180,551.095,619.5)"/><circle cx="550.5" cy="636.5" r="7.31" transform="rotate(0,549.31,635.31)"/><circle cx="550.5" cy="653.5" r="7.31" transform="rotate(0,549.31,652.31)"/><circle cx="550.5" cy="670.5" r="7.31" transform="rotate(0,549.31,669.31)"/><circle cx="550.5" cy="687.5" r="7.31" transform="rotate(0,549.31,686.31)"/><circle cx="550.5" cy="704.5" r="7.31" transform="rotate(0,549.31,703.31)"/><path d="M 542 714.19v 14.62h 8.5a 7.31 7.31, 0, 0, 0, 0 -14.62" transform="rotate(0,549.905,721.5)"/><rect x="542" y="731.19" width="17" height="14.62" transform="rotate(0,550.5,737.31)"/><rect x="542" y="765.19" width="17" height="14.62" transform="rotate(0,550.5,771.31)"/><rect x="559" y="289.19" width="17" height="14.62" transform="rotate(0,567.5,295.31)"/><circle cx="567.5" cy="313.5" r="7.31" transform="rotate(0,566.31,312.31)"/><path d="M 559 323.19v 14.62h 8.5a 7.31 7.31, 0, 0, 0, 0 -14.62" transform="rotate(0,566.905,330.5)"/><circle cx="567.5" cy="364.5" r="7.31" transform="rotate(0,566.31,363.31)"/><path d="M 560.19 374.19v 14.62h 8.5a 7.31 7.31, 0, 0, 0, 0 -14.62" transform="rotate(180,568.095,381.5)"/><circle cx="567.5" cy="398.5" r="7.31" transform="rotate(0,566.31,397.31)"/><path d="M 560.19 442.19v 14.62h 8.5a 7.31 7.31, 0, 0, 0, 0 -14.62" transform="rotate(180,568.095,449.5)"/><circle cx="567.5" cy="551.5" r="7.31" transform="rotate(0,566.31,550.31)"/><rect x="559" y="612.19" width="17" height="14.62" transform="rotate(0,567.5,618.31)"/><path d="M 559 731.19v 14.62h 8.5a 7.31 7.31, 0, 0, 0, 0 -14.62" transform="rotate(0,566.905,738.5)"/><rect x="559" y="765.19" width="17" height="14.62" transform="rotate(0,567.5,771.31)"/><rect x="576" y="289.19" width="17" height="14.62" transform="rotate(0,584.5,295.31)"/><path d="M 577.19 340.19v 14.62h 8.5a 7.31 7.31, 0, 0, 0, 0 -14.62" transform="rotate(180,585.095,347.5)"/><path d="M 576 374.19v 14.62h 8.5a 7.31 7.31, 0, 0, 0, 0 -14.62" transform="rotate(0,583.905,381.5)"/><path d="M 577.19 408.19v 14.62h 8.5a 7.31 7.31, 0, 0, 0, 0 -14.62" transform="rotate(180,585.095,415.5)"/><rect x="576" y="442.19" width="17" height="14.62" transform="rotate(0,584.5,448.31)"/><path d="M 577.19 493.19v 14.62h 8.5a 7.31 7.31, 0, 0, 0, 0 -14.62" transform="rotate(180,585.095,500.5)"/><circle cx="584.5" cy="517.5" r="7.31" transform="rotate(0,583.31,516.31)"/><path d="M 577.19 527.19v 14.62h 8.5a 7.31 7.31, 0, 0, 0, 0 -14.62" transform="rotate(180,585.095,534.5)"/><circle cx="584.5" cy="602.5" r="7.31" transform="rotate(0,583.31,601.31)"/><path d="M 576 612.19v 14.62h 8.5a 7.31 7.31, 0, 0, 0, 0 -14.62" transform="rotate(0,583.905,619.5)"/><path d="M 577.19 629.19v 14.62h 8.5a 7.31 7.31, 0, 0, 0, 0 -14.62" transform="rotate(180,585.095,636.5)"/><path d="M 577.19 646.19v 14.62h 8.5a 7.31 7.31, 0, 0, 0, 0 -14.62" transform="rotate(180,585.095,653.5)"/><path d="M 577.19 663.19v 14.62h 8.5a 7.31 7.31, 0, 0, 0, 0 -14.62" transform="rotate(180,585.095,670.5)"/><path d="M 577.19 697.19v 14.62h 8.5a 7.31 7.31, 0, 0, 0, 0 -14.62" transform="rotate(180,585.095,704.5)"/><circle cx="584.5" cy="721.5" r="7.31" transform="rotate(0,583.31,720.31)"/><rect x="576" y="765.19" width="17" height="14.62" transform="rotate(0,584.5,771.31)"/><path d="M 593 289.19v 14.62h 8.5a 7.31 7.31, 0, 0, 0, 0 -14.62" transform="rotate(0,600.905,296.5)"/><path d="M 593 340.19v 14.62h 8.5a 7.31 7.31, 0, 0, 0, 0 -14.62" transform="rotate(0,600.905,347.5)"/><circle cx="601.5" cy="364.5" r="7.31" transform="rotate(0,600.31,363.31)"/><circle cx="601.5" cy="398.5" r="7.31" transform="rotate(0,600.31,397.31)"/><path d="M 593 408.19v 14.62h 8.5a 7.31 7.31, 0, 0, 0, 0 -14.62" transform="rotate(0,600.905,415.5)"/><path d="M 593 442.19v 14.62h 8.5a 7.31 7.31, 0, 0, 0, 0 -14.62" transform="rotate(0,600.905,449.5)"/><path d="M 594.19 476.19v 14.62h 8.5a 7.31 7.31, 0, 0, 0, 0 -14.62" transform="rotate(180,602.095,483.5)"/><path d="M 593 493.19v 14.62h 8.5a 7.31 7.31, 0, 0, 0, 0 -14.62" transform="rotate(0,600.905,500.5)"/><path d="M 593 527.19v 14.62h 8.5a 7.31 7.31, 0, 0, 0, 0 -14.62" transform="rotate(0,600.905,534.5)"/><path d="M 594.19 544.19v 14.62h 8.5a 7.31 7.31, 0, 0, 0, 0 -14.62" transform="rotate(180,602.095,551.5)"/><circle cx="601.5" cy="585.5" r="7.31" transform="rotate(0,600.31,584.31)"/><rect x="593" y="629.19" width="17" height="14.62" transform="rotate(0,601.5,635.31)"/><path d="M 593 646.19v 14.62h 8.5a 7.31 7.31, 0, 0, 0, 0 -14.62" transform="rotate(0,600.905,653.5)"/><path d="M 593 663.19v 14.62h 8.5a 7.31 7.31, 0, 0, 0, 0 -14.62" transform="rotate(0,600.905,670.5)"/><circle cx="601.5" cy="687.5" r="7.31" transform="rotate(0,600.31,686.31)"/><rect x="593" y="697.19" width="17" height="14.62" transform="rotate(0,601.5,703.31)"/><path d="M 594.19 731.19v 14.62h 8.5a 7.31 7.31, 0, 0, 0, 0 -14.62" transform="rotate(180,602.095,738.5)"/><circle cx="601.5" cy="755.5" r="7.31" transform="rotate(0,600.31,754.31)"/><rect x="593" y="765.19" width="17" height="14.62" transform="rotate(0,601.5,771.31)"/><path d="M 611.19 425.19v 14.62h 8.5a 7.31 7.31, 0, 0, 0, 0 -14.62" transform="rotate(180,619.095,432.5)"/><circle cx="618.5" cy="466.5" r="7.31" transform="rotate(0,617.31,465.31)"/><path d="M 610 476.19v 14.62h 8.5a 7.31 7.31, 0, 0, 0, 0 -14.62" transform="rotate(0,617.905,483.5)"/><circle cx="618.5" cy="517.5" r="7.31" transform="rotate(0,617.31,516.31)"/><rect x="610" y="544.19" width="17" height="14.62" transform="rotate(0,618.5,550.31)"/><path d="M 611.19 561.19v 14.62h 8.5a 7.31 7.31, 0, 0, 0, 0 -14.62" transform="rotate(180,619.095,568.5)"/><path d="M 611.19 595.19v 14.62h 8.5a 7.31 7.31, 0, 0, 0, 0 -14.62" transform="rotate(180,619.095,602.5)"/><path d="M 611.19 612.19v 14.62h 8.5a 7.31 7.31, 0, 0, 0, 0 -14.62" transform="rotate(180,619.095,619.5)"/><rect x="610" y="629.19" width="17" height="14.62" transform="rotate(0,618.5,635.31)"/><rect x="610" y="697.19" width="17" height="14.62" transform="rotate(0,618.5,703.31)"/><circle cx="618.5" cy="721.5" r="7.31" transform="rotate(0,617.31,720.31)"/><path d="M 610 731.19v 14.62h 8.5a 7.31 7.31, 0, 0, 0, 0 -14.62" transform="rotate(0,617.905,738.5)"/><path d="M 610 765.19v 14.62h 8.5a 7.31 7.31, 0, 0, 0, 0 -14.62" transform="rotate(0,617.905,772.5)"/><path d="M 627 425.19v 14.62h 8.5a 7.31 7.31, 0, 0, 0, 0 -14.62" transform="rotate(0,634.905,432.5)"/><path d="M 628.19 442.19v 14.62h 8.5a 7.31 7.31, 0, 0, 0, 0 -14.62" transform="rotate(180,636.095,449.5)"/><rect x="627" y="544.19" width="17" height="14.62" transform="rotate(0,635.5,550.31)"/><rect x="627" y="561.19" width="17" height="14.62" transform="rotate(0,635.5,567.31)"/><path d="M 627 595.19v 14.62h 8.5a 7.31 7.31, 0, 0, 0, 0 -14.62" transform="rotate(0,634.905,602.5)"/><rect x="627" y="612.19" width="17" height="14.62" transform="rotate(0,635.5,618.31)"/><rect x="627" y="629.19" width="17" height="14.62" transform="rotate(0,635.5,635.31)"/><circle cx="635.5" cy="670.5" r="7.31" transform="rotate(0,634.31,669.31)"/><rect x="627" y="697.19" width="17" height="14.62" transform="rotate(0,635.5,703.31)"/><path d="M 644 442.19v 14.62h 8.5a 7.31 7.31, 0, 0, 0, 0 -14.62" transform="rotate(0,651.905,449.5)"/><circle cx="652.5" cy="483.5" r="7.31" transform="rotate(0,651.31,482.31)"/><circle cx="652.5" cy="500.5" r="7.31" transform="rotate(0,651.31,499.31)"/><circle cx="652.5" cy="534.5" r="7.31" transform="rotate(0,651.31,533.31)"/><path d="M 644 544.19v 14.62h 8.5a 7.31 7.31, 0, 0, 0, 0 -14.62" transform="rotate(0,651.905,551.5)"/><rect x="644" y="561.19" width="17" height="14.62" transform="rotate(0,652.5,567.31)"/><rect x="644" y="612.19" width="17" height="14.62" transform="rotate(0,652.5,618.31)"/><rect x="644" y="629.19" width="17" height="14.62" transform="rotate(0,652.5,635.31)"/><rect x="644" y="697.19" width="17" height="14.62" transform="rotate(0,652.5,703.31)"/><circle cx="652.5" cy="721.5" r="7.31" transform="rotate(0,651.31,720.31)"/><circle cx="652.5" cy="755.5" r="7.31" transform="rotate(0,651.31,754.31)"/><circle cx="652.5" cy="772.5" r="7.31" transform="rotate(0,651.31,771.31)"/><path d="M 662.19 459.19v 14.62h 8.5a 7.31 7.31, 0, 0, 0, 0 -14.62" transform="rotate(180,670.095,466.5)"/><rect x="661" y="561.19" width="17" height="14.62" transform="rotate(0,669.5,567.31)"/><path d="M 662.19 578.19v 14.62h 8.5a 7.31 7.31, 0, 0, 0, 0 -14.62" transform="rotate(180,670.095,585.5)"/><circle cx="669.5" cy="602.5" r="7.31" transform="rotate(0,668.31,601.31)"/><rect x="661" y="612.19" width="17" height="14.62" transform="rotate(0,669.5,618.31)"/><rect x="661" y="629.19" width="17" height="14.62" transform="rotate(0,669.5,635.31)"/><circle cx="669.5" cy="653.5" r="7.31" transform="rotate(0,668.31,652.31)"/><circle cx="669.5" cy="670.5" r="7.31" transform="rotate(0,668.31,669.31)"/><path d="M 662.19 680.19v 14.62h 8.5a 7.31 7.31, 0, 0, 0, 0 -14.62" transform="rotate(180,670.095,687.5)"/><path d="M 661 697.19v 14.62h 8.5a 7.31 7.31, 0, 0, 0, 0 -14.62" transform="rotate(0,668.905,704.5)"/><rect x="678" y="459.19" width="17" height="14.62" transform="rotate(0,686.5,465.31)"/><circle cx="686.5" cy="483.5" r="7.31" transform="rotate(0,685.31,482.31)"/><path d="M 679.19 510.19v 14.62h 8.5a 7.31 7.31, 0, 0, 0, 0 -14.62" transform="rotate(180,687.095,517.5)"/><path d="M 679.19 527.19v 14.62h 8.5a 7.31 7.31, 0, 0, 0, 0 -14.62" transform="rotate(180,687.095,534.5)"/><path d="M 678 561.19v 14.62h 8.5a 7.31 7.31, 0, 0, 0, 0 -14.62" transform="rotate(0,685.905,568.5)"/><path d="M 678 578.19v 14.62h 8.5a 7.31 7.31, 0, 0, 0, 0 -14.62" transform="rotate(0,685.905,585.5)"/><rect x="678" y="612.19" width="17" height="14.62" transform="rotate(0,686.5,618.31)"/><rect x="678" y="629.19" width="17" height="14.62" transform="rotate(0,686.5,635.31)"/><rect x="678" y="680.19" width="17" height="14.62" transform="rotate(0,686.5,686.31)"/><path d="M 679.19 748.19v 14.62h 8.5a 7.31 7.31, 0, 0, 0, 0 -14.62" transform="rotate(180,687.095,755.5)"/><path d="M 695 459.19v 14.62h 8.5a 7.31 7.31, 0, 0, 0, 0 -14.62" transform="rotate(0,702.905,466.5)"/><path d="M 696.19 493.19v 14.62h 8.5a 7.31 7.31, 0, 0, 0, 0 -14.62" transform="rotate(180,704.095,500.5)"/><path d="M 695 510.19v 14.62h 8.5a 7.31 7.31, 0, 0, 0, 0 -14.62" transform="rotate(0,702.905,517.5)"/><path d="M 695 527.19v 14.62h 8.5a 7.31 7.31, 0, 0, 0, 0 -14.62" transform="rotate(0,702.905,534.5)"/><circle cx="703.5" cy="602.5" r="7.31" transform="rotate(0,702.31,601.31)"/><path d="M 695 612.19v 14.62h 8.5a 7.31 7.31, 0, 0, 0, 0 -14.62" transform="rotate(0,702.905,619.5)"/><path d="M 695 629.19v 14.62h 8.5a 7.31 7.31, 0, 0, 0, 0 -14.62" transform="rotate(0,702.905,636.5)"/><path d="M 696.19 646.19v 14.62h 8.5a 7.31 7.31, 0, 0, 0, 0 -14.62" transform="rotate(180,704.095,653.5)"/><path d="M 696.19 663.19v 14.62h 8.5a 7.31 7.31, 0, 0, 0, 0 -14.62" transform="rotate(180,704.095,670.5)"/><path d="M 695 680.19v 14.62h 8.5a 7.31 7.31, 0, 0, 0, 0 -14.62" transform="rotate(0,702.905,687.5)"/><path d="M 696.19 697.19v 14.62h 8.5a 7.31 7.31, 0, 0, 0, 0 -14.62" transform="rotate(180,704.095,704.5)"/><circle cx="703.5" cy="721.5" r="7.31" transform="rotate(0,702.31,720.31)"/><path d="M 695 748.19v 14.62h 8.5a 7.31 7.31, 0, 0, 0, 0 -14.62" transform="rotate(0,702.905,755.5)"/><circle cx="720.5" cy="432.5" r="7.31" transform="rotate(0,719.31,431.31)"/><circle cx="720.5" cy="483.5" r="7.31" transform="rotate(0,719.31,482.31)"/><path d="M 712 493.19v 14.62h 8.5a 7.31 7.31, 0, 0, 0, 0 -14.62" transform="rotate(0,719.905,500.5)"/><circle cx="720.5" cy="551.5" r="7.31" transform="rotate(0,719.31,550.31)"/><path d="M 712 646.19v 14.62h 8.5a 7.31 7.31, 0, 0, 0, 0 -14.62" transform="rotate(0,719.905,653.5)"/><rect x="712" y="663.19" width="17" height="14.62" transform="rotate(0,720.5,669.31)"/><rect x="712" y="697.19" width="17" height="14.62" transform="rotate(0,720.5,703.31)"/><path d="M 713.19 731.19v 14.62h 8.5a 7.31 7.31, 0, 0, 0, 0 -14.62" transform="rotate(180,721.095,738.5)"/><circle cx="720.5" cy="772.5" r="7.31" transform="rotate(0,719.31,771.31)"/><circle cx="737.5" cy="517.5" r="7.31" transform="rotate(0,736.31,516.31)"/><circle cx="737.5" cy="585.5" r="7.31" transform="rotate(0,736.31,584.31)"/><circle cx="737.5" cy="619.5" r="7.31" transform="rotate(0,736.31,618.31)"/><path d="M 729 663.19v 14.62h 8.5a 7.31 7.31, 0, 0, 0, 0 -14.62" transform="rotate(0,736.905,670.5)"/><path d="M 729 697.19v 14.62h 8.5a 7.31 7.31, 0, 0, 0, 0 -14.62" transform="rotate(0,736.905,704.5)"/><circle cx="737.5" cy="721.5" r="7.31" transform="rotate(0,736.31,720.31)"/><path d="M 729 731.19v 14.62h 8.5a 7.31 7.31, 0, 0, 0, 0 -14.62" transform="rotate(0,736.905,738.5)"/></clipPath><clipPath id="clip-path-corners-square-color-0-0"><path d="M 254.19 289.19v 14.62h 8.5a 7.31 7.31, 0, 0, 0, 0 -14.62" transform="rotate(180,262.09499999999997,296.5)"/><circle cx="261.5" cy="313.5" r="7.31" transform="rotate(0,260.31,312.31)"/><circle cx="261.5" cy="330.5" r="7.31" transform="rotate(0,260.31,329.31)"/><circle cx="261.5" cy="347.5" r="7.31" transform="rotate(0,260.31,346.31)"/><circle cx="261.5" cy="364.5" r="7.31" transform="rotate(0,260.31,363.31)"/><circle cx="261.5" cy="381.5" r="7.31" transform="rotate(0,260.31,380.31)"/><path d="M 254.19 391.19v 14.62h 8.5a 7.31 7.31, 0, 0, 0, 0 -14.62" transform="rotate(180,262.09499999999997,398.5)"/><rect x="270" y="289.19" width="17" height="14.62" transform="rotate(0,278.5,295.31)"/><rect x="270" y="391.19" width="17" height="14.62" transform="rotate(0,278.5,397.31)"/><rect x="287" y="289.19" width="17" height="14.62" transform="rotate(0,295.5,295.31)"/><rect x="287" y="391.19" width="17" height="14.62" transform="rotate(0,295.5,397.31)"/><rect x="304" y="289.19" width="17" height="14.62" transform="rotate(0,312.5,295.31)"/><rect x="304" y="391.19" width="17" height="14.62" transform="rotate(0,312.5,397.31)"/><rect x="321" y="289.19" width="17" height="14.62" transform="rotate(0,329.5,295.31)"/><rect x="321" y="391.19" width="17" height="14.62" transform="rotate(0,329.5,397.31)"/><rect x="338" y="289.19" width="17" height="14.62" transform="rotate(0,346.5,295.31)"/><rect x="338" y="391.19" width="17" height="14.62" transform="rotate(0,346.5,397.31)"/><path d="M 355 289.19v 14.62h 8.5a 7.31 7.31, 0, 0, 0, 0 -14.62" transform="rotate(0,362.905,296.5)"/><circle cx="363.5" cy="313.5" r="7.31" transform="rotate(0,362.31,312.31)"/><circle cx="363.5" cy="330.5" r="7.31" transform="rotate(0,362.31,329.31)"/><circle cx="363.5" cy="347.5" r="7.31" transform="rotate(0,362.31,346.31)"/><circle cx="363.5" cy="364.5" r="7.31" transform="rotate(0,362.31,363.31)"/><circle cx="363.5" cy="381.5" r="7.31" transform="rotate(0,362.31,380.31)"/><path d="M 355 391.19v 14.62h 8.5a 7.31 7.31, 0, 0, 0, 0 -14.62" transform="rotate(0,362.905,398.5)"/></clipPath><clipPath id="clip-path-corners-dot-color-0-0"><path d="M 288.19 323.19v 14.62h 8.5a 7.31 7.31, 0, 0, 0, 0 -14.62" transform="rotate(180,296.09499999999997,330.5)"/><path d="M 288.19 340.19v 14.62h 8.5a 7.31 7.31, 0, 0, 0, 0 -14.62" transform="rotate(180,296.09499999999997,347.5)"/><path d="M 288.19 357.19v 14.62h 8.5a 7.31 7.31, 0, 0, 0, 0 -14.62" transform="rotate(180,296.09499999999997,364.5)"/><rect x="304" y="323.19" width="17" height="14.62" transform="rotate(0,312.5,329.31)"/><rect x="304" y="340.19" width="17" height="14.62" transform="rotate(0,312.5,346.31)"/><rect x="304" y="357.19" width="17" height="14.62" transform="rotate(0,312.5,363.31)"/><path d="M 321 323.19v 14.62h 8.5a 7.31 7.31, 0, 0, 0, 0 -14.62" transform="rotate(0,328.905,330.5)"/><path d="M 321 340.19v 14.62h 8.5a 7.31 7.31, 0, 0, 0, 0 -14.62" transform="rotate(0,328.905,347.5)"/><path d="M 321 357.19v 14.62h 8.5a 7.31 7.31, 0, 0, 0, 0 -14.62" transform="rotate(0,328.905,364.5)"/></clipPath><clipPath id="clip-path-corners-square-color-1-0"><path d="M 628.19 289.19v 14.62h 8.5a 7.31 7.31, 0, 0, 0, 0 -14.62" transform="rotate(180,636.095,296.5)"/><circle cx="635.5" cy="313.5" r="7.31" transform="rotate(0,634.31,312.31)"/><circle cx="635.5" cy="330.5" r="7.31" transform="rotate(0,634.31,329.31)"/><circle cx="635.5" cy="347.5" r="7.31" transform="rotate(0,634.31,346.31)"/><circle cx="635.5" cy="364.5" r="7.31" transform="rotate(0,634.31,363.31)"/><circle cx="635.5" cy="381.5" r="7.31" transform="rotate(0,634.31,380.31)"/><path d="M 628.19 391.19v 14.62h 8.5a 7.31 7.31, 0, 0, 0, 0 -14.62" transform="rotate(180,636.095,398.5)"/><rect x="644" y="289.19" width="17" height="14.62" transform="rotate(0,652.5,295.31)"/><rect x="644" y="391.19" width="17" height="14.62" transform="rotate(0,652.5,397.31)"/><rect x="661" y="289.19" width="17" height="14.62" transform="rotate(0,669.5,295.31)"/><rect x="661" y="391.19" width="17" height="14.62" transform="rotate(0,669.5,397.31)"/><rect x="678" y="289.19" width="17" height="14.62" transform="rotate(0,686.5,295.31)"/><rect x="678" y="391.19" width="17" height="14.62" transform="rotate(0,686.5,397.31)"/><rect x="695" y="289.19" width="17" height="14.62" transform="rotate(0,703.5,295.31)"/><rect x="695" y="391.19" width="17" height="14.62" transform="rotate(0,703.5,397.31)"/><rect x="712" y="289.19" width="17" height="14.62" transform="rotate(0,720.5,295.31)"/><rect x="712" y="391.19" width="17" height="14.62" transform="rotate(0,720.5,397.31)"/><path d="M 729 289.19v 14.62h 8.5a 7.31 7.31, 0, 0, 0, 0 -14.62" transform="rotate(0,736.905,296.5)"/><circle cx="737.5" cy="313.5" r="7.31" transform="rotate(0,736.31,312.31)"/><circle cx="737.5" cy="330.5" r="7.31" transform="rotate(0,736.31,329.31)"/><circle cx="737.5" cy="347.5" r="7.31" transform="rotate(0,736.31,346.31)"/><circle cx="737.5" cy="364.5" r="7.31" transform="rotate(0,736.31,363.31)"/><circle cx="737.5" cy="381.5" r="7.31" transform="rotate(0,736.31,380.31)"/><path d="M 729 391.19v 14.62h 8.5a 7.31 7.31, 0, 0, 0, 0 -14.62" transform="rotate(0,736.905,398.5)"/></clipPath><clipPath id="clip-path-corners-dot-color-1-0"><path d="M 662.19 323.19v 14.62h 8.5a 7.31 7.31, 0, 0, 0, 0 -14.62" transform="rotate(180,670.095,330.5)"/><path d="M 662.19 340.19v 14.62h 8.5a 7.31 7.31, 0, 0, 0, 0 -14.62" transform="rotate(180,670.095,347.5)"/><path d="M 662.19 357.19v 14.62h 8.5a 7.31 7.31, 0, 0, 0, 0 -14.62" transform="rotate(180,670.095,364.5)"/><rect x="678" y="323.19" width="17" height="14.62" transform="rotate(0,686.5,329.31)"/><rect x="678" y="340.19" width="17" height="14.62" transform="rotate(0,686.5,346.31)"/><rect x="678" y="357.19" width="17" height="14.62" transform="rotate(0,686.5,363.31)"/><path d="M 695 323.19v 14.62h 8.5a 7.31 7.31, 0, 0, 0, 0 -14.62" transform="rotate(0,702.905,330.5)"/><path d="M 695 340.19v 14.62h 8.5a 7.31 7.31, 0, 0, 0, 0 -14.62" transform="rotate(0,702.905,347.5)"/><path d="M 695 357.19v 14.62h 8.5a 7.31 7.31, 0, 0, 0, 0 -14.62" transform="rotate(0,702.905,364.5)"/></clipPath><clipPath id="clip-path-corners-square-color-0-1"><path d="M 254.19 663.19v 14.62h 8.5a 7.31 7.31, 0, 0, 0, 0 -14.62" transform="rotate(180,262.09499999999997,670.5)"/><circle cx="261.5" cy="687.5" r="7.31" transform="rotate(0,260.31,686.31)"/><circle cx="261.5" cy="704.5" r="7.31" transform="rotate(0,260.31,703.31)"/><circle cx="261.5" cy="721.5" r="7.31" transform="rotate(0,260.31,720.31)"/><circle cx="261.5" cy="738.5" r="7.31" transform="rotate(0,260.31,737.31)"/><circle cx="261.5" cy="755.5" r="7.31" transform="rotate(0,260.31,754.31)"/><path d="M 254.19 765.19v 14.62h 8.5a 7.31 7.31, 0, 0, 0, 0 -14.62" transform="rotate(180,262.09499999999997,772.5)"/><rect x="270" y="663.19" width="17" height="14.62" transform="rotate(0,278.5,669.31)"/><rect x="270" y="765.19" width="17" height="14.62" transform="rotate(0,278.5,771.31)"/><rect x="287" y="663.19" width="17" height="14.62" transform="rotate(0,295.5,669.31)"/><rect x="287" y="765.19" width="17" height="14.62" transform="rotate(0,295.5,771.31)"/><rect x="304" y="663.19" width="17" height="14.62" transform="rotate(0,312.5,669.31)"/><rect x="304" y="765.19" width="17" height="14.62" transform="rotate(0,312.5,771.31)"/><rect x="321" y="663.19" width="17" height="14.62" transform="rotate(0,329.5,669.31)"/><rect x="321" y="765.19" width="17" height="14.62" transform="rotate(0,329.5,771.31)"/><rect x="338" y="663.19" width="17" height="14.62" transform="rotate(0,346.5,669.31)"/><rect x="338" y="765.19" width="17" height="14.62" transform="rotate(0,346.5,771.31)"/><path d="M 355 663.19v 14.62h 8.5a 7.31 7.31, 0, 0, 0, 0 -14.62" transform="rotate(0,362.905,670.5)"/><circle cx="363.5" cy="687.5" r="7.31" transform="rotate(0,362.31,686.31)"/><circle cx="363.5" cy="704.5" r="7.31" transform="rotate(0,362.31,703.31)"/><circle cx="363.5" cy="721.5" r="7.31" transform="rotate(0,362.31,720.31)"/><circle cx="363.5" cy="738.5" r="7.31" transform="rotate(0,362.31,737.31)"/><circle cx="363.5" cy="755.5" r="7.31" transform="rotate(0,362.31,754.31)"/><path d="M 355 765.19v 14.62h 8.5a 7.31 7.31, 0, 0, 0, 0 -14.62" transform="rotate(0,362.905,772.5)"/></clipPath><clipPath id="clip-path-corners-dot-color-0-1"><path d="M 288.19 697.19v 14.62h 8.5a 7.31 7.31, 0, 0, 0, 0 -14.62" transform="rotate(180,296.09499999999997,704.5)"/><path d="M 288.19 714.19v 14.62h 8.5a 7.31 7.31, 0, 0, 0, 0 -14.62" transform="rotate(180,296.09499999999997,721.5)"/><path d="M 288.19 731.19v 14.62h 8.5a 7.31 7.31, 0, 0, 0, 0 -14.62" transform="rotate(180,296.09499999999997,738.5)"/><rect x="304" y="697.19" width="17" height="14.62" transform="rotate(0,312.5,703.31)"/><rect x="304" y="714.19" width="17" height="14.62" transform="rotate(0,312.5,720.31)"/><rect x="304" y="731.19" width="17" height="14.62" transform="rotate(0,312.5,737.31)"/><path d="M 321 697.19v 14.62h 8.5a 7.31 7.31, 0, 0, 0, 0 -14.62" transform="rotate(0,328.905,704.5)"/><path d="M 321 714.19v 14.62h 8.5a 7.31 7.31, 0, 0, 0, 0 -14.62" transform="rotate(0,328.905,721.5)"/><path d="M 321 731.19v 14.62h 8.5a 7.31 7.31, 0, 0, 0, 0 -14.62" transform="rotate(0,328.905,738.5)"/></clipPath></defs><defs/><path fill="#000000" d="M805.5,212.31c5.51,0,10,4.49,10,10v621h-631v-621c0-5.51,4.49-10,10-10H805.5 M805.5,182.31h-611 c-22.09,0-40,17.91-40,40v651h691v-651C845.5,200.22,827.59,182.31,805.5,182.31L805.5,182.31z"/>
			<path fill="#595959" d="M940.5,870h-881c-7.46,0-13.5-6.04-13.5-13.5l0,0c0-7.46,6.04-13.5,13.5-13.5h881c7.46,0,13.5,6.04,13.5,13.5 l0,0C954,863.96,947.96,870,940.5,870z"/>
			<path fill="#000000" d="M809,962H191c-50.81,0-92-41.19-92-92v0h802v0C901,920.81,859.81,962,809,962z"/>
			<path fill="#000000" d="M768.77,971.07c-14.11-16.13-35.01-19.44-54.67-9.2c-9.98-9.67-28.38-9.98-44.13-4.35c-5.68,2.03-75.15,29.56-97.52,38.43 c-8.35-14.2-25.85-19.47-32.86-21.57c-11.39-3.42-166.66-31.01-225.5-18.17c-20.04,4.37-173.71,61.92-180.24,64.37 c-4.65,1.74-7.01,6.93-5.27,11.59c1.75,4.66,6.94,7.01,11.59,5.27c44.16-16.55,162.17-60.23,177.76-63.63 c51.68-11.28,201.93,13.46,216.5,17.83c17.97,5.39,25.09,12.04,24.6,22.97c-0.57,12.63-7.05,18.07-25.67,21.56 c-12.73,2.39-120.55,10.82-161.02,13.87c-4.96,0.37-8.67,4.69-8.3,9.65c0.36,4.73,4.3,8.33,8.96,8.32c0.23,0,0.46-0.01,0.69-0.03 c2.63-0.2,31.33-2.36,64.04-4.99c8.42,4.51,41.14,22,55.26,29.06c21.87,10.93,36.25,2.87,54.47-7.34c2.17-1.22,4.46-2.5,6.87-3.81 c11.02-6.01,147.26-89.29,163.74-100.45c5.16-3.49,23.08-13.64,37.18,2.48c3.41,3.9,5.03,9.02,4.55,14.41 c-0.56,6.33-3.9,12.23-9.4,16.63c-6.76,5.41-171.11,134.74-191.44,148.59c-35.01,23.84-77.4,30.45-125.98,19.65 c-10.79-2.4-137.83-38.25-203.5-56.87c-1.85-0.53-3.83-0.44-5.64,0.24l-45,17c-4.65,1.76-7,6.95-5.24,11.6 c1.76,4.65,6.95,7,11.6,5.24l42.22-15.95c24.7,7,188.44,53.38,201.65,56.32c16.47,3.66,32.32,5.49,47.52,5.49 c34.3,0,65.28-9.3,92.5-27.83c21.31-14.51,186.19-144.32,192.56-149.41c9.37-7.5,15.08-17.83,16.08-29.09 C778.62,988.6,775.45,978.71,768.77,971.07z M545.69,1065.1c-2.47,1.35-4.82,2.66-7.05,3.91c-18.45,10.34-24.89,13.3-37.62,6.94 c-7-3.5-18.97-9.78-30.12-15.68c30.98-2.6,59.01-5.16,65.76-6.42c10.64-2,38.92-7.3,40.33-38.44c0.03-0.65,0.03-1.28,0.03-1.91 c34.65-13.74,94.17-37.3,99.01-39.03c7.65-2.73,15.7-3.29,21-1.9C660.36,995.71,555.27,1059.87,545.69,1065.1z"/>
			<polygon fill="#595959" points="0,1300 17.07,1300 195,1188 126,997 0,1032.71"/>
			<text fill="#000000" font-size="90" x="50%" y="98" dominant-baseline="middle" text-anchor="middle" font-family="sans-serif">Scan me!</text><rect x="218" y="253" height="563" width="564" clip-path="url('#clip-path-background-color')" fill="#ffffff"/><rect x="253" y="288" height="493" width="493" clip-path="url('#clip-path-dot-color')" fill="#000000"/><rect x="253" y="288" height="119" width="119" clip-path="url('#clip-path-corners-square-color-0-0')" fill="#000000"/><rect x="287" y="322" height="51" width="51" clip-path="url('#clip-path-corners-dot-color-0-0')" fill="#000000"/><rect x="627" y="288" height="119" width="119" clip-path="url('#clip-path-corners-square-color-1-0')" fill="#000000"/><rect x="661" y="322" height="51" width="51" clip-path="url('#clip-path-corners-dot-color-1-0')" fill="#000000"/><rect x="253" y="662" height="119" width="119" clip-path="url('#clip-path-corners-square-color-0-1')" fill="#000000"/><rect x="287" y="696" height="51" width="51" clip-path="url('#clip-path-corners-dot-color-0-1')" fill="#000000"/></svg>